<?xml version="1.0" standalone="no"?>
<!DOCTYPE svg PUBLIC "-//W3C//DTD SVG 20010904//EN"
 "http://www.w3.org/TR/2001/REC-SVG-20010904/DTD/svg10.dtd">
<svg version="1.0" xmlns="http://www.w3.org/2000/svg"
 width="520.000000pt" height="520.000000pt" viewBox="0 0 520.000000 520.000000"
 preserveAspectRatio="xMidYMid meet">
<metadata>
Created by potrace 1.14, written by Peter Selinger 2001-2017
</metadata>
<g transform="translate(0.000000,520.000000) scale(0.100000,-0.100000)"
fill="#000000" stroke="none">
<path d="M452 5180 c-109 -29 -187 -74 -273 -160 -56 -55 -86 -95 -113 -150
-70 -144 -66 7 -66 -2276 0 -2020 0 -2062 20 -2138 29 -113 73 -190 160 -277
55 -56 95 -86 150 -113 144 -70 -7 -66 2276 -66 2020 0 2062 0 2138 20 113 29
190 73 277 160 56 55 86 95 113 150 70 144 66 -7 66 2276 0 2020 0 2062 -20
2138 -29 113 -73 190 -160 277 -55 56 -95 86 -150 113 -144 70 8 66 -2280 65
-2001 0 -2067 -1 -2138 -19z m993 -1554 c466 -151 625 -716 310 -1101 -50 -60
-143 -130 -230 -171 -122 -59 -167 -64 -587 -64 l-378 0 0 134 0 135 383 3
c369 3 384 4 437 26 113 46 197 131 241 242 31 78 31 213 0 289 -48 117 -135
203 -247 242 -73 26 -189 27 -259 4 -117 -40 -224 -145 -261 -257 -18 -57 -24
-157 -11 -225 l7 -43 -139 0 -140 0 -7 57 c-30 239 90 505 291 643 169 116
396 149 590 86z m1212 17 c47 -22 73 -66 73 -126 0 -40 -5 -53 -34 -85 -33
-35 -38 -37 -96 -37 -58 0 -63 2 -96 37 -29 32 -34 45 -34 85 0 109 93 171
187 126z m1508 -17 c237 -76 408 -268 460 -514 12 -54 15 -195 15 -719 l0
-653 -135 0 -134 0 -3 663 -3 662 -23 54 c-71 168 -209 263 -381 263 -133 0
-249 -59 -327 -164 -59 -80 -79 -143 -78 -248 3 -265 226 -443 497 -397 l47 8
0 -139 0 -139 -37 -7 c-73 -12 -190 -6 -265 13 -232 60 -409 226 -485 456 -23
70 -27 97 -27 210 0 116 3 138 27 210 83 240 266 406 503 459 101 23 247 15
349 -18z m-1403 -535 c232 -60 409 -226 485 -456 23 -70 27 -97 27 -210 0
-116 -3 -138 -27 -210 -86 -246 -270 -411 -517 -461 -431 -87 -831 263 -807
706 14 261 157 474 393 587 133 64 303 80 446 44z m-984 -1144 c18 -35 57 -94
87 -130 30 -37 55 -69 55 -72 0 -3 -306 -5 -680 -5 l-680 0 0 135 0 135 593 0
592 0 33 -63z"/>
<path d="M2520 2830 c-209 -44 -358 -261 -322 -468 58 -331 453 -460 688 -226
248 248 91 672 -258 698 -35 3 -83 1 -108 -4z"/>
</g>
</svg>
