<svg width="520" height="520" viewBox="0 0 520 520" fill="none"
    xmlns="http://www.w3.org/2000/svg">
    <rect width="520" height="520" rx="60" fill="#0A0E15"/>
    <path fill-rule="evenodd" clip-rule="evenodd" d="M436.8 222.571C436.8 199.864 418.522 181.428 396 181.428C373.478 181.428 355.2 199.864 355.2 222.571C355.2 245.278 373.478 263.714 396 263.714C400.767 263.714 405.343 262.888 409.6 261.369V289.768C405.207 290.669 400.658 291.142 396 291.142C358.471 291.142 328 260.417 328 222.571C328 184.725 358.471 154 396 154C433.529 154 464 184.725 464 222.571V345.999H436.8V222.571Z" fill="white"/>
    <path fill-rule="evenodd" clip-rule="evenodd" d="M260.001 208.856C297.531 208.856 328.001 239.581 328.001 277.427C328.001 315.273 297.531 345.998 260.001 345.998C222.47 345.998 192 315.273 192 277.427C192 239.581 222.47 208.856 260.001 208.856ZM260.001 236.284C282.519 236.284 300.801 254.72 300.801 277.427C300.801 300.134 282.519 318.57 260.001 318.57C237.482 318.57 219.201 300.134 219.201 277.427C219.201 254.72 237.482 236.284 260.001 236.284Z" fill="white"/>
    <path d="M259.999 181.428C267.51 181.428 273.599 175.288 273.599 167.714C273.599 160.14 267.51 154 259.999 154C252.488 154 246.399 160.14 246.399 167.714C246.399 175.288 252.488 181.428 259.999 181.428Z" fill="#2AEDDD"/>
    <path fill-rule="evenodd" clip-rule="evenodd" d="M259.999 154C267.505 154 273.599 160.145 273.599 167.714C273.599 175.283 267.505 181.428 259.999 181.428C252.494 181.428 246.399 175.283 246.399 167.714C246.399 160.145 252.494 154 259.999 154ZM259.999 181.428C252.494 181.428 246.399 175.283 246.399 167.714C246.399 160.145 252.494 154 259.999 154C267.505 154 273.599 160.145 273.599 167.714C273.599 175.283 267.505 181.428 259.999 181.428Z" fill="white"/>
    <path fill-rule="evenodd" clip-rule="evenodd" d="M173.975 318.571H56V345.999H192V344.587C184.653 337.025 178.536 328.242 173.975 318.571Z" fill="white"/>
    <path fill-rule="evenodd" clip-rule="evenodd" d="M173.975 318.571H56V345.999H192V344.587C184.653 337.025 178.536 328.242 173.975 318.571Z" fill="white"/>
    <path fill-rule="evenodd" clip-rule="evenodd" d="M124 263.714C146.518 263.714 164.8 245.278 164.8 222.571C164.8 199.864 146.518 181.428 124 181.428C101.482 181.428 83.2001 199.864 83.2001 222.571C83.2001 227.378 84.0194 231.994 85.5256 236.285H57.3628C56.4692 231.855 56 227.267 56 222.571C56 184.725 86.4695 154 124 154C161.531 154 192 184.725 192 222.571C192 260.417 161.531 291.142 124 291.142H56V263.714H124Z" fill="white"/>
</svg>
