<?xml version="1.0" encoding="UTF-8" standalone="no"?>
<!DOCTYPE svg PUBLIC "-//W3C//DTD SVG 1.1//EN" "http://www.w3.org/Graphics/SVG/1.1/DTD/svg11.dtd">
<svg width="100%" height="100%" viewBox="0 0 600 280" version="1.1" xmlns="http://www.w3.org/2000/svg" xmlns:xlink="http://www.w3.org/1999/xlink" xml:space="preserve" xmlns:serif="http://www.serif.com/" style="fill-rule:evenodd;clip-rule:evenodd;stroke-linejoin:round;stroke-miterlimit:2;">
    <g transform="matrix(1,0,0,1,-700,-360)">
        <g transform="matrix(1,0,0,1,100,-40)">
            <path id="_9" serif:id="9" d="M1160,500C1160,466.885 1133.12,440 1100,440C1066.88,440 1040,466.885 1040,500C1040,533.115 1066.88,560 1100,560C1107.01,560 1113.74,558.795 1120,556.58L1120,597.996C1113.54,599.31 1106.85,600 1100,600C1044.81,600 1000,555.192 1000,500C1000,444.808 1044.81,400 1100,400C1155.19,400 1200,444.808 1200,500L1200,680L1160,680L1160,500Z" style="fill:white;"/>
            <g id="_0" serif:id="0">
                <g transform="matrix(1,0,0,1,200,80)">
                    <path d="M700,400C755.192,400 800,444.808 800,500C800,555.192 755.192,600 700,600C644.808,600 600,555.192 600,500C600,444.808 644.808,400 700,400ZM700,440C733.115,440 760,466.885 760,500C760,533.115 733.115,560 700,560C666.885,560 640,533.115 640,500C640,466.885 666.885,440 700,440Z" style="fill:white;"/>
                </g>
                <g transform="matrix(1,0,0,1,0,-160)">
                    <circle cx="900" cy="580" r="20" style="fill:rgb(42,237,221);"/>
                    <path d="M900,560C911.038,560 920,568.962 920,580C920,591.038 911.038,600 900,600C888.962,600 880,591.038 880,580C880,568.962 888.962,560 900,560ZM900,600C888.962,600 880,591.038 880,580C880,568.962 888.962,560 900,560C911.038,560 920,568.962 920,580C920,591.038 911.038,600 900,600Z" style="fill:white;"/>
                </g>
            </g>
            <g id="_2" serif:id="2">
                <path d="M773.492,640L600,640L600,680L800,680L800,677.94C789.196,666.912 780.199,654.104 773.492,640Z" style="fill:white;"/>
                <path d="M773.492,640L600,640L600,680L800,680L800,677.94C789.196,666.912 780.199,654.104 773.492,640Z" style="fill:white;"/>
                <path d="M700,560C733.115,560 760,533.115 760,500C760,466.885 733.115,440 700,440C666.885,440 640,466.885 640,500C640,507.01 641.205,513.742 643.42,520L602.004,520C600.69,513.539 600,506.849 600,500C600,444.808 644.808,400 700,400C755.192,400 800,444.808 800,500C800,555.192 755.192,600 700,600L600,600L600,560L700,560Z" style="fill:white;"/>
            </g>
        </g>
    </g>
</svg>
