<svg viewBox="0 0 141 42"
    xmlns="http://www.w3.org/2000/svg">
    <g clip-path="url(#clip0)">
        <path d="M21.1605 0.0692139C9.50947 0.0692139 0.0639648 9.44246 0.0639648 21.0047C0.0639648 32.5675 9.50947 41.94 21.1605 41.94C32.8129 41.94 42.2574 32.5675 42.2574 21.0047C42.2574 9.44321 32.8129 0.0702139 21.1603 0.0702139L21.1605 0.0692139ZM30.8353 30.2642C30.4574 30.8792 29.6462 31.0742 29.0265 30.6967C24.0732 27.6942 17.8377 27.0142 10.4942 28.6792C9.78658 28.8392 9.08121 28.3992 8.91998 27.6967C8.75799 26.9942 9.19961 26.2942 9.90902 26.1342C17.9453 24.3122 24.8386 25.0967 30.3995 28.4692C31.0192 28.8467 31.2157 29.6492 30.8353 30.2642ZM33.4175 24.5637C32.9413 25.3317 31.9286 25.5742 31.1552 25.1017C25.4845 21.6427 16.8404 20.641 10.133 22.6615C9.26309 22.9222 8.34434 22.4357 8.08033 21.574C7.81833 20.7107 8.30882 19.8007 9.17719 19.5382C16.8388 17.2312 26.3637 18.3487 32.8758 22.32C33.6492 22.7925 33.8936 23.7975 33.4175 24.564V24.5637ZM33.6392 18.6277C26.8398 14.62 15.6218 14.2515 9.13008 16.2067C8.08763 16.5205 6.98523 15.9365 6.66932 14.902C6.35341 13.867 6.94139 12.7737 7.9846 12.4592C15.4367 10.2142 27.8248 10.648 35.653 15.2597C36.5927 15.812 36.9 17.0137 36.3433 17.943C35.7891 18.8735 34.5748 19.1802 33.6402 18.6277H33.6392ZM57.4608 19.3957C53.818 18.5337 53.1706 17.9287 53.1706 16.6575C53.1706 15.4565 54.3092 14.6482 56.0047 14.6482C57.6472 14.6482 59.2746 15.262 60.9826 16.5255C61.033 16.5637 61.0985 16.579 61.1615 16.569C61.227 16.5595 61.2824 16.5247 61.3202 16.4725L63.0987 13.9845C63.1718 13.882 63.1516 13.7407 63.0534 13.6625C61.0204 12.0442 58.733 11.2575 56.0576 11.2575C52.1251 11.2575 49.3766 13.5997 49.3766 16.951C49.3766 20.5447 51.7472 21.8172 55.8434 22.7995C59.3275 23.5962 59.917 24.2637 59.917 25.4567C59.917 26.7792 58.7279 27.6017 56.8133 27.6017C54.6871 27.6017 52.9514 26.8892 51.0116 25.2242C50.9637 25.1817 50.8982 25.1642 50.8378 25.1667C50.7723 25.1717 50.7143 25.2017 50.674 25.2492L48.6788 27.6042C48.5957 27.7042 48.6058 27.8492 48.7015 27.9342C50.9587 29.9342 53.7349 30.9892 56.7327 30.9892C60.97 30.9892 63.7084 28.6917 63.7084 25.1342C63.7159 22.1325 61.9046 20.47 57.4683 19.399L57.4608 19.3957ZM73.2965 15.8307C71.46 15.8307 69.9535 16.5487 68.709 18.02V16.364C68.709 16.2332 68.6032 16.1267 68.4722 16.1267H65.2098C65.0788 16.1267 64.973 16.2332 64.973 16.364V34.7642C64.973 34.8942 65.0788 35.0017 65.2098 35.0017H68.4722C68.6032 35.0017 68.709 34.8942 68.709 34.7642V28.9567C69.9535 30.3392 71.46 31.0167 73.2965 31.0167C76.71 31.0167 80.1664 28.4092 80.1664 23.4245C80.1714 18.4387 76.715 15.8305 73.299 15.8305L73.2965 15.8307ZM76.3724 23.4245C76.3724 25.9617 74.7979 27.7342 72.5407 27.7342C70.3112 27.7342 68.6284 25.8817 68.6284 23.4245C68.6284 20.967 70.3112 19.115 72.5407 19.115C74.7601 19.1147 76.3724 20.9267 76.3724 23.4242V23.4245ZM89.0214 15.8307C84.6253 15.8307 81.1816 19.1897 81.1816 23.4787C81.1816 27.7217 84.6027 31.0442 88.9685 31.0442C93.3796 31.0442 96.8334 27.6967 96.8334 23.4245C96.8334 19.1667 93.4023 15.8312 89.0214 15.8312V15.8307ZM89.0214 27.7592C86.6835 27.7592 84.9201 25.8942 84.9201 23.4232C84.9201 20.941 86.6231 19.1397 88.9685 19.1397C91.3214 19.1397 93.0949 21.004 93.0949 23.4775C93.0949 25.9592 91.3819 27.7592 89.0214 27.7592ZM106.22 16.1267H102.63V12.4852C102.63 12.3547 102.524 12.2482 102.393 12.2482H99.1309C98.9999 12.2482 98.8916 12.3547 98.8916 12.4852V16.1267H97.3246C97.1936 16.1267 97.0879 16.2332 97.0879 16.364V19.1457C97.0879 19.2762 97.1936 19.383 97.3246 19.383H98.8916V26.5817C98.8916 29.4892 100.35 30.9642 103.23 30.9642C104.399 30.9642 105.368 30.7242 106.283 30.2092C106.359 30.1692 106.404 30.0892 106.404 30.0042V27.3542C106.404 27.2742 106.361 27.1967 106.291 27.1542C106.22 27.1092 106.132 27.1067 106.059 27.1442C105.431 27.4567 104.824 27.6017 104.144 27.6017C103.099 27.6017 102.63 27.1292 102.63 26.0742V19.3842H106.22C106.351 19.3842 106.457 19.2777 106.457 19.147V16.3655C106.462 16.2347 106.356 16.1282 106.222 16.1282L106.22 16.1267ZM118.725 16.141V15.6937C118.725 14.378 119.234 13.7912 120.373 13.7912C121.053 13.7912 121.6 13.9252 122.212 14.1277C122.287 14.1512 122.366 14.1395 122.426 14.0947C122.489 14.05 122.524 13.9782 122.524 13.9022V11.1747C122.524 11.0705 122.459 10.9782 122.355 10.9475C121.711 10.7567 120.884 10.561 119.645 10.561C116.634 10.561 115.04 12.2445 115.04 15.4277V16.1127H113.473C113.342 16.1127 113.233 16.2192 113.233 16.3497V19.1457C113.233 19.2762 113.342 19.383 113.473 19.383H115.04V30.4842C115.04 30.6167 115.148 30.7217 115.279 30.7217H118.539C118.672 30.7217 118.778 30.6167 118.778 30.4842V19.3837H121.824L126.489 30.4842C125.96 31.6492 125.439 31.8817 124.729 31.8817C124.154 31.8817 123.547 31.7117 122.93 31.3742C122.872 31.3442 122.801 31.3392 122.741 31.3567C122.678 31.3792 122.625 31.4242 122.6 31.4842L121.494 33.8917C121.441 34.0067 121.486 34.1392 121.597 34.1992C122.751 34.8192 123.791 35.0842 125.079 35.0842C127.487 35.0842 128.82 33.9692 129.991 30.9742L135.649 16.465C135.68 16.392 135.669 16.3095 135.624 16.2447C135.581 16.1805 135.508 16.1417 135.43 16.1417H132.034C131.931 16.1417 131.84 16.206 131.808 16.3007L128.328 26.1592L124.519 16.2942C124.484 16.2025 124.396 16.1417 124.298 16.1417H118.725V16.141ZM111.475 16.1267H108.213C108.082 16.1267 107.973 16.2332 107.973 16.364V30.4842C107.973 30.6167 108.082 30.7217 108.213 30.7217H111.475C111.606 30.7217 111.714 30.6167 111.714 30.4842V16.365C111.714 16.2342 111.609 16.1277 111.475 16.1277V16.1267ZM109.863 9.69696C108.57 9.69696 107.522 10.735 107.522 12.0172C107.522 13.3002 108.57 14.3395 109.863 14.3395C111.155 14.3395 112.201 13.3002 112.201 12.0172C112.201 10.7352 111.153 9.69696 109.863 9.69696ZM138.436 20.667C137.146 20.667 136.141 19.6382 136.141 18.389C136.141 17.1397 137.158 16.0992 138.448 16.0992C139.738 16.0992 140.743 17.1277 140.743 18.376C140.743 19.6252 139.725 20.667 138.436 20.667ZM138.448 16.3257C137.272 16.3257 136.382 17.2532 136.382 18.389C136.382 19.5242 137.267 20.4392 138.436 20.4392C139.612 20.4392 140.501 19.5125 140.501 18.376C140.501 17.2407 139.617 16.3257 138.448 16.3257ZM138.957 18.6102L139.607 19.5122H139.058L138.473 18.6847H137.972V19.5122H137.514V17.1212H138.587C139.148 17.1212 139.516 17.4055 139.516 17.884C139.519 18.276 139.29 18.5155 138.96 18.6102H138.957ZM138.569 17.5315H137.972V18.2877H138.569C138.866 18.2877 139.045 18.143 139.045 17.9092C139.045 17.6632 138.866 17.5315 138.569 17.5315Z" />
    </g>
    <defs>
        <clipPath id="clip0">
            <rect width="140.824" height="42" />
        </clipPath>
    </defs>
</svg>
