<svg viewBox="0 0 170 24"
    xmlns="http://www.w3.org/2000/svg">
    <path d="M62.0585 22.665H57.7427V7.36914H52.1611V3.6724H67.6401V7.36914H62.0585V22.665Z" />
    <path d="M84.895 22.6649H80.5532V3.67224H84.895V22.6649Z" />
    <path d="M161.504 18.9171H169.012V22.6655H157.164V3.67289H161.504V18.9171Z" />
    <path d="M99.3472 3.6724H106.38C111.569 3.6724 116.732 6.41821 116.732 13.117C116.732 19.4314 111.671 22.665 106.637 22.665H99.3472V3.6724ZM103.56 18.9424H106.252C109.874 18.9424 112.288 16.6844 112.288 13.0911C112.288 9.67768 109.848 7.36914 106.354 7.36914H103.56V18.9424Z" />
    <path d="M140.823 22.665H145.596L137.765 3.6724H133.283L125.377 22.665H130.02L131.421 18.9178H139.435L140.823 22.665ZM132.585 15.5431L135.448 8.11554L138.284 15.5431H132.585Z" />
    <path d="M23.1354 6.43972L17.5727 11.9995L12.0088 6.43972L17.5727 0.88227L23.1354 6.43972Z" />
    <path d="M23.1354 17.5586L17.5727 23.1184L12.0088 17.5586L17.5727 11.9988L23.1354 17.5586Z" />
    <path d="M12.009 6.4402L6.44506 12L0.882324 6.4402L6.44506 0.881584L12.009 6.4402Z" />
    <path d="M34.2614 6.4402L28.6987 12L23.1348 6.4402L28.6987 0.881584L34.2614 6.4402Z" />
</svg>
