<svg viewBox="0 0 160 60" fill="none"
    xmlns="http://www.w3.org/2000/svg">
    <path fill-rule="evenodd" clip-rule="evenodd" d="M36.5439 3.44047C36.4926 3.43443 36.4353 3.42236 36.3809 3.41632L36.3145 3.40425C36.221 3.38916 36.1304 3.38011 36.0338 3.37105C35.9674 3.36502 35.901 3.362 35.8377 3.35898C35.723 3.34993 35.6113 3.34691 35.5026 3.34691C35.4513 3.34691 35.4212 3.34691 35.3729 3.34691C35.2793 3.34993 35.1888 3.35596 35.1042 3.362C35.0529 3.36502 35.0046 3.36804 34.9564 3.37105C34.8809 3.37709 34.8115 3.38313 34.739 3.39821L34.6817 3.40425L34.6123 3.41632L34.5338 3.42839C34.5006 3.43443 34.4644 3.44047 34.4312 3.4465C34.3799 3.45556 34.3346 3.46461 34.2893 3.47366C33.9996 3.53704 33.734 3.61551 33.4895 3.71208C33.3597 3.76339 33.236 3.81167 33.1243 3.87203C33.0247 3.92032 32.9342 3.97163 32.8436 4.02595C32.7561 4.07424 32.6746 4.12252 32.5931 4.17383C32.5478 4.21005 32.5026 4.23721 32.4573 4.2704C32.4181 4.29757 32.3818 4.32171 32.3456 4.34887C32.2671 4.40923 32.1947 4.47261 32.1223 4.53297C32.0589 4.59333 31.9955 4.64765 31.9382 4.70499C31.8869 4.7563 31.8325 4.81062 31.7903 4.86796C31.7359 4.9253 31.6877 4.97661 31.6424 5.03697C31.5881 5.10034 31.5458 5.1607 31.4975 5.2271C31.4583 5.2784 31.4281 5.32669 31.3919 5.37799C31.3677 5.41723 31.3496 5.44439 31.3285 5.48362C31.1987 5.68583 31.0901 5.91217 30.9965 6.14757C30.8848 6.43428 30.8033 6.75418 30.7581 7.08918C30.746 7.1948 30.7339 7.30647 30.7249 7.41813C30.7188 7.49962 30.7188 7.59016 30.7188 7.67164C30.7188 7.73804 30.7188 7.80141 30.7188 7.86479C30.7249 7.93119 30.7339 7.99758 30.7399 8.06096L30.746 8.11226C30.755 8.19073 30.7671 8.26618 30.7822 8.33861C30.7882 8.36879 30.7943 8.39595 30.8003 8.42613C30.8124 8.48951 30.8275 8.54987 30.8395 8.61324C30.8637 8.69171 30.8848 8.76414 30.912 8.84563C30.9422 8.93918 30.9784 9.0267 31.0116 9.11724C31.0719 9.25607 31.1383 9.38886 31.2047 9.51561C31.247 9.58804 31.2893 9.66349 31.3315 9.73592C31.3677 9.78723 31.4009 9.84155 31.4371 9.89286C31.4824 9.96529 31.5337 10.0287 31.582 10.089C31.6333 10.1554 31.6877 10.2188 31.742 10.2792C31.8054 10.3546 31.8687 10.424 31.9321 10.4844L31.9653 10.5176C32.0197 10.5689 32.074 10.6262 32.1404 10.6805C32.1857 10.7168 32.2309 10.756 32.2822 10.7952C32.3275 10.8345 32.3758 10.8707 32.4271 10.9069C32.4905 10.9522 32.5509 10.9914 32.6203 11.0397C32.6957 11.0819 32.7712 11.1332 32.8527 11.1785C33.0126 11.269 33.1877 11.3535 33.3869 11.435C33.4563 11.4652 33.5348 11.4894 33.6102 11.5165C33.6887 11.5437 33.7672 11.5708 33.8487 11.592C33.9905 11.6282 34.1384 11.6644 34.2893 11.6976C34.4131 11.7217 34.5459 11.7398 34.6817 11.7549C34.8115 11.773 34.9503 11.7851 35.0892 11.7912C35.1616 11.7972 35.234 11.7972 35.3004 11.8032H35.403C35.6596 11.8032 35.895 11.7912 36.1123 11.773L36.1576 11.77C36.2451 11.764 36.3266 11.7519 36.4081 11.7398C36.5379 11.7278 36.6526 11.7097 36.7673 11.6855C36.8367 11.6735 36.9061 11.6584 36.9755 11.6463C37.0812 11.6221 37.1808 11.595 37.2743 11.5739C37.3468 11.5558 37.4132 11.5346 37.4796 11.5135C37.558 11.4894 37.6305 11.4652 37.7029 11.4441L37.7723 11.4169C37.8085 11.4049 37.8538 11.3867 37.9081 11.3656C37.9836 11.3354 38.0711 11.3022 38.1707 11.26C38.2311 11.2298 38.2975 11.2057 38.3669 11.1755C38.4212 11.1453 38.4846 11.1121 38.551 11.091C38.5752 11.0729 38.6023 11.0608 38.6295 11.0487V9.48845C38.6114 9.50052 38.5902 9.51561 38.5721 9.52467L38.4665 9.58804C38.3609 9.65142 38.2552 9.71178 38.1556 9.77214C38.0409 9.8325 37.9262 9.88682 37.8176 9.94416C37.6274 10.0347 37.4403 10.1102 37.2622 10.1735C36.9212 10.2942 36.6103 10.3697 36.3357 10.421C36.3025 10.427 36.2693 10.4331 36.2391 10.4391C36.1606 10.4512 36.0882 10.4572 36.0157 10.4693C35.9101 10.4753 35.8075 10.4814 35.72 10.4874C35.6596 10.4874 35.6053 10.4964 35.554 10.4964C35.4423 10.4964 35.3276 10.4874 35.2099 10.4814C35.0741 10.4693 34.9382 10.4572 34.7964 10.4331C34.573 10.3938 34.3437 10.3395 34.1264 10.255C34.0901 10.246 34.06 10.2309 34.0268 10.2128C34.0056 10.2067 33.9845 10.2007 33.9604 10.1886C33.9272 10.1735 33.8909 10.1584 33.8547 10.1433C33.7762 10.1041 33.7008 10.0709 33.6284 10.0256C33.5921 10.0045 33.5559 9.9834 33.5167 9.95925C33.4835 9.93511 33.4442 9.91097 33.408 9.88682C33.3658 9.85362 33.3175 9.82344 33.2752 9.79025C33.2299 9.75705 33.1877 9.72083 33.1515 9.69065L33.1002 9.64237L33.073 9.61822L33.0579 9.60615L33.0398 9.58804C32.9674 9.51863 32.904 9.4462 32.8436 9.37679C32.8134 9.33454 32.7833 9.2953 32.7501 9.25607C32.7259 9.21683 32.6987 9.18364 32.6746 9.14139C32.6474 9.10517 32.6263 9.07197 32.6052 9.02972C32.572 8.9754 32.5418 8.92108 32.5146 8.86675C32.4935 8.82148 32.4724 8.7732 32.4543 8.72793C32.4181 8.64946 32.3909 8.56797 32.3667 8.49253C32.3486 8.4382 32.3335 8.37483 32.3154 8.3205C32.2792 8.15753 32.2581 8.00663 32.243 7.87988C32.237 7.82858 32.237 7.78331 32.2339 7.74105C32.2309 7.6807 32.2309 7.62637 32.2309 7.5811V7.48755C32.2339 7.39701 32.243 7.28233 32.2611 7.15557C32.2702 7.0771 32.2883 6.9926 32.3094 6.90508C32.3215 6.84472 32.3396 6.78738 32.3577 6.72702C32.3758 6.6727 32.3939 6.61536 32.4181 6.555C32.4301 6.51576 32.4482 6.47955 32.4663 6.4373C32.4875 6.38599 32.5146 6.3377 32.5418 6.28338C32.5629 6.23811 32.5841 6.2019 32.6082 6.15964C32.6595 6.07212 32.7199 5.98159 32.7833 5.89406C32.8074 5.86087 32.8315 5.83069 32.8557 5.80051C32.8889 5.76127 32.9251 5.72204 32.9613 5.68281C32.9794 5.6647 33.0006 5.64056 33.0187 5.61943C33.3054 5.33574 33.6283 5.11845 33.9573 4.97057C34.0117 4.94341 34.063 4.9253 34.1143 4.90418C34.1686 4.88305 34.2199 4.86494 34.2742 4.84382C34.3286 4.82571 34.3889 4.8076 34.4463 4.78949C34.5006 4.77742 34.558 4.75931 34.6123 4.74422C34.6696 4.73215 34.724 4.7231 34.7783 4.71404C34.8386 4.70197 34.896 4.69292 34.9594 4.68085C35.0167 4.67481 35.0771 4.66877 35.1374 4.66877C35.2521 4.6567 35.3608 4.65067 35.4694 4.65067C35.5087 4.65067 35.5449 4.65067 35.5811 4.65067C35.6626 4.65067 35.7381 4.6567 35.8165 4.6567C35.8709 4.67783 35.9222 4.67783 35.9765 4.67783C36.0701 4.6899 36.1697 4.70197 36.2572 4.71706C36.3357 4.72913 36.4172 4.74121 36.4866 4.75328C36.5982 4.78044 36.7009 4.80458 36.7974 4.83174C36.8548 4.84382 36.9061 4.85891 36.9574 4.87701C37.0329 4.90116 37.0962 4.92228 37.1476 4.93435C37.2351 4.97057 37.2834 4.98566 37.2834 4.98566C37.3588 5.01282 37.4373 5.04904 37.5097 5.07016C37.6093 5.11543 37.7029 5.15165 37.7934 5.1939C37.8689 5.23313 37.9413 5.26633 38.0077 5.29349C38.0651 5.32367 38.1164 5.35385 38.1647 5.37498C38.2492 5.42326 38.3247 5.45646 38.382 5.49268L38.542 5.5802V4.04104C38.542 4.04104 38.4454 4.00482 38.2824 3.94145C38.2069 3.9173 38.1194 3.88411 38.0198 3.85091C37.9685 3.82978 37.9112 3.81167 37.8478 3.78753C37.7995 3.77546 37.7512 3.75433 37.6999 3.73924C37.6395 3.71812 37.5822 3.69699 37.5188 3.67888C37.4735 3.66681 37.4282 3.64871 37.3769 3.63362L37.3377 3.62154C37.2924 3.60947 37.2441 3.5974 37.2019 3.58533C37.1445 3.57024 37.0872 3.55213 37.0298 3.53402C36.9936 3.52799 36.9574 3.52195 36.9182 3.51591C36.8578 3.49781 36.8005 3.48272 36.7341 3.47065C36.6707 3.46461 36.6103 3.45556 36.5439 3.44047ZM28.8838 1.84698H41.044V13.2881H28.8838V1.84698Z" fill="#F7FAFC"/>
    <path fill-rule="evenodd" clip-rule="evenodd" d="M19.5395 8.1756V10.424H20.9973C20.9973 10.424 21.0275 10.421 21.0728 10.421C21.1241 10.4179 21.1935 10.4149 21.281 10.4089C21.4349 10.3938 21.6462 10.3636 21.8484 10.2942C22.0325 10.2338 22.2076 10.1433 22.3464 10.0075C22.3977 9.95317 22.443 9.89885 22.4792 9.84151C22.5909 9.66043 22.6211 9.48237 22.6271 9.37675C22.6301 9.32544 22.6301 9.30431 22.6301 9.30431C22.6301 9.30431 22.6301 9.28319 22.6301 9.24999C22.6301 9.2017 22.6241 9.12022 22.603 9.02968C22.5728 8.92405 22.5215 8.80032 22.4309 8.68563C22.4098 8.66752 22.3917 8.6464 22.3736 8.62527C22.3344 8.58604 22.2891 8.54379 22.2408 8.51059C22.1593 8.45325 22.0688 8.40194 21.9692 8.35969C21.8394 8.29933 21.6915 8.25708 21.5285 8.23294C21.45 8.21483 21.3595 8.20276 21.272 8.19672C21.2146 8.18465 21.1633 8.18465 21.1029 8.17862C21.0516 8.1756 21.0003 8.1756 20.949 8.1756H19.5395Z" fill="#F7FAFC"/>
    <path fill-rule="evenodd" clip-rule="evenodd" d="M19.5395 4.75333V6.884H20.2458C20.2458 6.884 20.291 6.884 20.3544 6.884C20.4057 6.88099 20.4601 6.88099 20.5144 6.87495C20.6593 6.8659 20.8615 6.84477 21.0607 6.79346C21.1029 6.78139 21.1422 6.76932 21.1784 6.75121C21.3353 6.69387 21.4862 6.61541 21.607 6.49771C21.7005 6.41019 21.7609 6.30456 21.8001 6.20496C21.8515 6.08425 21.8696 5.96956 21.8786 5.88506C21.8816 5.80961 21.8816 5.76736 21.8816 5.76736C21.8816 5.76736 21.8816 5.72813 21.8816 5.6738C21.8786 5.58326 21.8575 5.42633 21.7851 5.28449C21.7488 5.21507 21.7005 5.14868 21.6311 5.0853C21.5557 5.00683 21.4591 4.94648 21.3565 4.90121C21.1573 4.81067 20.9279 4.77143 20.7377 4.7654C20.6502 4.75936 20.5748 4.75333 20.5114 4.75333H19.5395Z" fill="#F7FAFC"/>
    <path fill-rule="evenodd" clip-rule="evenodd" d="M18.0605 3.45556V11.6976H21.1662C21.1662 11.6976 22.6814 11.7338 23.5144 10.9009C24.1935 10.2158 24.1452 9.43413 24.1452 9.43413C24.1452 9.43413 24.1935 8.61626 23.5627 7.98249C23.0254 7.44831 22.3433 7.30043 22.3433 7.30043C22.3433 7.30043 22.6512 7.15859 22.8896 6.92319C23.0013 6.81152 23.3967 6.45239 23.3967 5.58623C23.3967 4.71103 22.8142 4.20703 22.8142 4.20703C22.8142 4.20703 22.1773 3.45556 20.7377 3.45556H18.0605ZM14.8733 1.84698H27.0336V13.2881H14.8733V1.84698Z" fill="#F7FAFC"/>
    <path fill-rule="evenodd" clip-rule="evenodd" d="M5.52603 8.1756V10.424H6.98683C6.98683 10.424 7.014 10.421 7.06229 10.421C7.11058 10.4179 7.18302 10.4149 7.26753 10.4089C7.42749 10.3938 7.63273 10.3636 7.83796 10.2942C8.01905 10.2338 8.19713 10.1433 8.33596 10.0075C8.39029 9.95317 8.43255 9.89885 8.46876 9.84151C8.58346 9.66043 8.61062 9.48237 8.61666 9.37976C8.62269 9.32846 8.62269 9.30733 8.62269 9.30733V9.24999C8.61666 9.20472 8.61364 9.12022 8.58949 9.02968C8.56233 8.92405 8.51102 8.80032 8.41746 8.68563C8.40538 8.66752 8.38426 8.6464 8.36615 8.62527C8.32087 8.58604 8.27862 8.54379 8.23636 8.51059C8.15186 8.45325 8.06131 8.40194 7.96473 8.35969C7.82891 8.29933 7.68404 8.25708 7.52105 8.23294C7.44258 8.21483 7.35204 8.20276 7.26451 8.19672C7.21018 8.18465 7.14982 8.18465 7.09247 8.17862C7.0472 8.1756 6.99287 8.1756 6.94156 8.1756H5.52603Z" fill="#F7FAFC"/>
    <path fill-rule="evenodd" clip-rule="evenodd" d="M5.52603 4.75333V6.884H6.23531C6.23531 6.884 6.28058 6.884 6.34094 6.884C6.39225 6.88099 6.45262 6.88099 6.50392 6.87495C6.6488 6.8659 6.85403 6.84477 7.05323 6.79346C7.09247 6.78139 7.12869 6.76932 7.17094 6.75121C7.32789 6.69387 7.4788 6.61541 7.59651 6.49771C7.69007 6.41019 7.75044 6.30456 7.79269 6.20496C7.84098 6.08425 7.86211 5.96956 7.86815 5.88506C7.87418 5.80961 7.87418 5.76736 7.87418 5.76736V5.6738C7.86513 5.58326 7.84702 5.42633 7.77458 5.28449C7.74138 5.21507 7.69007 5.14868 7.62669 5.0853C7.5452 5.00683 7.44862 4.94648 7.33996 4.90121C7.14378 4.81067 6.91742 4.77143 6.72123 4.7654C6.64276 4.75936 6.56731 4.75333 6.50392 4.75333H5.52603Z" fill="#F7FAFC"/>
    <path fill-rule="evenodd" clip-rule="evenodd" d="M4.05311 3.45556V11.6976H7.1558C7.1558 11.6976 8.66791 11.7338 9.50093 10.9009C10.183 10.2158 10.1348 9.43413 10.1348 9.43413C10.1348 9.43413 10.183 8.61324 9.55224 7.98249C9.01501 7.44831 8.3329 7.30043 8.3329 7.30043C8.3329 7.30043 8.64075 7.15859 8.87919 6.92319C8.99086 6.81152 9.38624 6.45239 9.38624 5.58623C9.38624 4.71103 8.80373 4.20703 8.80373 4.20703C8.80373 4.20703 8.1669 3.45556 6.73024 3.45556H4.05311ZM0.859863 1.84698H13.0201V13.2881H0.859863V1.84698Z" fill="#F7FAFC"/>
    <path fill-rule="evenodd" clip-rule="evenodd" d="M0.859863 16.1249V25.5862H2.21805V21.4818H2.78547C3.48569 21.4818 4.04707 21.6991 5.29962 23.6457L6.54915 25.5862H8.16991C7.51798 24.6869 7.28257 24.3639 6.87813 23.709C6.15678 22.532 5.63162 21.6629 4.77143 21.0925C5.78253 20.6881 6.35296 19.8732 6.35296 18.7747C6.35296 17.1389 5.16078 16.1249 3.24725 16.1249H0.859863ZM2.21805 17.2898H3.09332C4.40925 17.2898 4.93743 17.8331 4.95253 18.7173C4.9646 19.508 4.54809 20.2565 3.09332 20.2565H2.21805V17.2898Z" fill="#F7FAFC"/>
    <path fill-rule="evenodd" clip-rule="evenodd" d="M13.1138 16.0706H12.157L8.09152 25.5832H9.47989L10.6751 22.8007H14.6953L15.9569 25.5832H17.3392L13.1138 16.0706ZM12.6158 18.153L14.14 21.5754H11.1972L12.6158 18.153Z" fill="#F7FAFC"/>
    <path fill-rule="evenodd" clip-rule="evenodd" d="M18.471 25.5862H22.1623C25.2831 25.5862 27.1785 23.2835 27.1785 20.8601C27.1785 18.6268 25.6423 16.1279 22.1472 16.1279H18.471V25.5862ZM19.8322 17.3472H21.9208C24.5738 17.3472 25.7811 18.9527 25.7811 20.8571C25.7811 22.022 25.0748 24.3639 21.9963 24.3639H19.8322V17.3472Z" fill="#F7FAFC"/>
    <path d="M29.4271 25.5862V16.1249" stroke="white" stroke-miterlimit="10"/>
    <path fill-rule="evenodd" clip-rule="evenodd" d="M31.6726 20.8571C31.6726 23.4224 33.6284 25.707 36.719 25.707C39.9243 25.707 41.8409 23.4043 41.8409 20.8571C41.8409 18.2224 39.87 16.0042 36.7492 16.0042C33.6827 16.0042 31.6726 18.2345 31.6726 20.8571ZM33.073 20.8571C33.073 18.7747 34.6425 17.2537 36.7492 17.2537C38.871 17.2537 40.4404 18.7747 40.4404 20.8571C40.4404 22.9214 38.871 24.4606 36.7492 24.4606C34.6425 24.4606 33.073 22.9214 33.073 20.8571Z" fill="#F7FAFC"/>
    <path d="M119.608 39.5443C119.592 40.0664 119.571 40.5463 118.959 40.9175C118.527 41.1589 118.141 41.1589 117.975 41.1589C117.398 41.1589 117.009 40.8994 116.84 40.6791C116.619 40.3803 116.619 39.9518 116.619 39.5262V33.5024H113.737V39.6017C113.737 41.1801 113.828 41.7565 114.329 42.4627C115.005 43.3952 116.17 43.4858 116.804 43.4858C117.434 43.4858 118.068 43.3349 118.639 43.0421C119.164 42.7826 119.33 42.5985 119.604 42.2756V43.2081H122.469V33.5054H119.604V39.5443H119.608Z" fill="#F7FAFC"/>
    <path d="M128.511 36.8643C127.581 36.6953 126.963 36.5837 126.963 36.0284C126.963 35.7507 127.228 35.3071 128.342 35.3071C129.012 35.3071 129.869 35.5666 130.778 36.2698L132.543 34.6371C131.873 34.1693 130.5 33.1855 128.212 33.1855C125.502 33.1855 124.123 34.8423 124.123 36.4388C124.123 37.1631 124.424 37.8361 124.85 38.2617C125.276 38.6932 125.873 38.9316 126.462 39.0976C126.893 39.2274 127.34 39.321 127.769 39.3994C128.327 39.487 128.991 39.5473 129.423 39.7706C129.589 39.8642 129.791 39.9879 129.791 40.3259C129.791 41.0503 128.753 41.2736 128.067 41.2736C126.99 41.2736 126.021 40.6972 125.239 39.9336L123.438 41.5693C124.05 42.1488 125.442 43.4495 128.14 43.4495C130.428 43.4495 132.731 42.3359 132.731 40.0513C132.731 37.7396 130.461 37.2144 128.511 36.8643Z" fill="#F7FAFC"/>
    <path d="M136.364 33.4842H133.536V43.2051H136.364V33.4842Z" fill="#F7FAFC"/>
    <path d="M136.364 30.0649H133.536V32.271H136.364V30.0649Z" fill="#F7FAFC"/>
    <path d="M143.976 40.5825C143.376 41.2495 142.669 41.2495 142.525 41.2495C141 41.2495 140.37 39.6379 140.37 38.3522C140.37 37.1813 140.889 35.4158 142.431 35.4158C142.875 35.4158 143.231 35.5636 143.508 35.7507C143.976 36.0827 144.16 36.4177 144.326 36.7708L146.448 35.5636C145.223 33.5356 143.376 33.2398 142.301 33.2398C139.069 33.2398 137.436 35.6149 137.436 38.4458C137.436 42.4023 140.391 43.522 142.247 43.522C143.342 43.522 144.29 43.1628 145.036 42.6498C145.817 42.0885 146.207 41.4758 146.56 40.9175L144.408 39.8039C144.308 40.0785 144.215 40.3018 143.976 40.5825Z" fill="#F7FAFC"/>
    <path d="M106.747 34.9087C106.228 34.3684 106.128 33.2578 104.194 33.2578C102.518 33.2578 101.773 34.13 101.441 34.5193V33.5174H98.6129V43.202H101.441V37.6791C101.441 37.0122 101.459 36.2305 102.09 35.805C102.349 35.636 102.648 35.5817 102.872 35.5817C103.339 35.5817 103.765 35.7869 103.988 36.0826C104.248 36.4539 104.266 37.0333 104.266 37.4618V43.202H107.091V37.9206C107.091 36.8613 107.091 36.306 107.634 35.8804C107.912 35.6541 108.286 35.5786 108.564 35.5786C108.784 35.5786 109.548 35.636 109.807 36.4508C109.919 36.822 109.919 37.5494 109.919 38.1077V43.202H112.747V36.8794C112.747 35.8382 112.729 35.1742 112.485 34.6521C112.189 34.0606 111.374 33.288 109.777 33.2578C107.707 33.2307 107.305 34.4439 106.747 34.9087Z" fill="#F7FAFC"/>
    <path d="M83.1417 25.7643C86.6368 27.7803 87.829 32.2438 85.8189 35.7386C83.8027 39.2365 79.3358 40.4346 75.8408 38.4126C72.3487 36.4026 71.1475 31.936 73.1666 28.4382C75.1828 24.9494 79.6527 23.7483 83.1417 25.7643ZM79.9817 60C90.3733 60 99.8836 54.7216 105.425 45.888C105.425 45.885 105.425 45.882 105.431 45.882V45.879C105.461 45.8307 105.473 45.7794 105.473 45.7251C105.473 45.6315 105.425 45.5379 105.338 45.4866C105.202 45.4021 105.03 45.4353 104.942 45.5711C99.9863 53.3726 90.1922 58.4156 79.9817 58.4156C64.3113 58.4156 51.5625 45.6647 51.5625 29.9985C51.5625 15.2045 62.935 3.01796 77.3951 1.70515L64.2268 24.53C60.2579 32.5245 63.1251 42.3268 70.9634 46.8538C79.1215 51.5678 89.5463 48.7732 94.2607 40.6157C98.9752 32.4581 96.1773 22.025 88.0222 17.311C85.5171 15.8684 82.8037 15.1411 80.1085 15.0475L87.331 2.52301C99.6452 5.7311 109.273 16.7949 109.273 29.917C109.273 30.077 109.4 30.2037 109.563 30.2037C109.717 30.2037 109.847 30.077 109.847 29.917V29.751C109.841 13.0678 96.4369 0 79.9817 0C63.439 0 49.9779 13.4571 49.9779 29.9985C49.9779 46.5399 63.439 60 79.9817 60Z" fill="#F7FAFC"/>
</svg>
