<svg viewBox="0 0 109 60" fill="none"
    xmlns="http://www.w3.org/2000/svg">
    <path fill-rule="evenodd" clip-rule="evenodd" d="M28.0013 1.85119H40.1521V13.2962H28.0013V1.85119ZM35.6579 3.44549C35.6057 3.43467 35.548 3.42742 35.494 3.4166L35.4291 3.40757C35.3354 3.39495 35.2435 3.38413 35.1462 3.37692C35.0813 3.3679 35.0164 3.3643 34.9534 3.3625C34.8362 3.35348 34.7245 3.34989 34.6164 3.34989C34.5659 3.34989 34.5353 3.35171 34.4866 3.35171C34.3929 3.35351 34.3046 3.3589 34.2163 3.36431C34.1677 3.36792 34.1172 3.37151 34.0686 3.37692C33.9965 3.38233 33.9262 3.38774 33.8541 3.40036L33.7947 3.40581L33.728 3.4166L33.6487 3.43102C33.6145 3.43463 33.5802 3.44186 33.546 3.44907C33.4955 3.45448 33.4487 3.46713 33.4036 3.47615C33.1153 3.53747 32.8486 3.61679 32.6036 3.71238C32.4756 3.76287 32.3531 3.81701 32.2395 3.87292C32.1404 3.92162 32.0503 3.97207 31.9584 4.02257C31.8719 4.07307 31.7909 4.12361 31.7098 4.17591C31.6647 4.20837 31.6179 4.23543 31.5728 4.2697C31.535 4.29855 31.4989 4.32377 31.4611 4.35082C31.3854 4.41034 31.3097 4.47348 31.2394 4.533C31.1764 4.59251 31.1133 4.6502 31.0538 4.70791C31.0034 4.75661 30.9493 4.80893 30.9061 4.86664C30.8538 4.92075 30.8052 4.97483 30.7583 5.03434C30.706 5.09566 30.6628 5.157 30.6141 5.22373C30.5745 5.27243 30.5439 5.32294 30.5096 5.37344C30.4844 5.40951 30.4646 5.44195 30.4466 5.47983C30.3168 5.68362 30.2069 5.90546 30.1132 6.14172C30.0015 6.4393 29.9186 6.75848 29.8735 7.09212C29.8627 7.20033 29.8519 7.30856 29.8429 7.42037C29.8375 7.50514 29.8357 7.5917 29.8357 7.67647C29.8357 7.7432 29.8357 7.80632 29.8375 7.87125C29.8429 7.93617 29.8519 8.0011 29.8573 8.06603L29.8627 8.11292C29.8717 8.19228 29.8843 8.26805 29.8988 8.34199C29.906 8.37265 29.9114 8.39967 29.9168 8.43033C29.9294 8.49165 29.9456 8.55296 29.9582 8.61609C29.9798 8.69364 30.0033 8.76942 30.0303 8.84697C30.0609 8.94075 30.0952 9.03093 30.1294 9.1193C30.1907 9.25817 30.2555 9.3916 30.3222 9.51965C30.3637 9.5936 30.4051 9.66574 30.4484 9.73788C30.4844 9.79018 30.5186 9.84431 30.5529 9.89661C30.5997 9.96695 30.6502 10.0318 30.6988 10.095C30.7493 10.1617 30.8052 10.2212 30.8592 10.2825C30.9205 10.3565 30.9854 10.425 31.0484 10.4882L31.0809 10.5206C31.1367 10.5711 31.1908 10.627 31.2575 10.6847C31.3007 10.719 31.3476 10.7605 31.398 10.7984C31.4431 10.8344 31.4935 10.8741 31.5422 10.9101C31.6071 10.9552 31.6665 10.9985 31.735 11.0436C31.8125 11.0851 31.8882 11.1356 31.9675 11.1807C32.1278 11.2709 32.3044 11.3575 32.5008 11.4368C32.5711 11.4657 32.6486 11.4927 32.7261 11.5179C32.8036 11.5468 32.8829 11.5702 32.964 11.5937C33.1063 11.6315 33.2541 11.6695 33.4054 11.7001C33.5298 11.7254 33.6631 11.7434 33.7947 11.7578C33.928 11.7758 34.065 11.7884 34.2037 11.7957C34.2758 11.8011 34.3479 11.8011 34.4164 11.8047H34.5173C34.7732 11.8047 35.0074 11.7939 35.2273 11.7758L35.2705 11.7722C35.3588 11.765 35.4399 11.756 35.5228 11.7434C35.6507 11.7307 35.7661 11.7127 35.8796 11.6911C35.9517 11.6803 36.0201 11.664 36.0886 11.6514C36.1949 11.6262 36.294 11.6027 36.3878 11.5774C36.458 11.5612 36.5265 11.5414 36.5932 11.5198C36.6707 11.4981 36.7427 11.471 36.8166 11.4458L36.8851 11.4241C36.9193 11.4115 36.968 11.3935 37.0203 11.3737C37.0941 11.3448 37.1824 11.3088 37.2833 11.2655C37.3446 11.2402 37.4095 11.2114 37.478 11.1807C37.532 11.1519 37.5969 11.1212 37.6636 11.0923C37.6852 11.0797 37.714 11.0653 37.7429 11.0545V9.49081C37.723 9.50344 37.7014 9.51784 37.6852 9.52686L37.5789 9.58999C37.4708 9.65492 37.368 9.71622 37.2671 9.77393C37.1554 9.83345 37.0401 9.88936 36.9302 9.94526C36.7391 10.0354 36.5517 10.1112 36.3751 10.1743C36.0346 10.297 35.7228 10.3727 35.4489 10.4232C35.4147 10.4286 35.3822 10.4358 35.3516 10.4395C35.2741 10.4503 35.202 10.4611 35.13 10.4683C35.0236 10.4791 34.9209 10.4845 34.8344 10.4899C34.7732 10.4917 34.7209 10.4954 34.6668 10.4954C34.5569 10.4954 34.4434 10.4917 34.3245 10.4827C34.1893 10.4719 34.0542 10.4557 33.9118 10.4358C33.6866 10.3961 33.4595 10.3384 33.2415 10.2591C33.2054 10.2483 33.1748 10.2338 33.1423 10.2194C33.1207 10.214 33.0991 10.205 33.0757 10.1941C33.0414 10.1779 33.0072 10.1635 32.9694 10.1473C32.8919 10.1112 32.8162 10.0734 32.7423 10.0301C32.7081 10.0084 32.672 9.98497 32.6342 9.96513C32.5981 9.93988 32.5603 9.91644 32.5225 9.88758C32.481 9.86053 32.4324 9.82626 32.3909 9.7938C32.3477 9.75773 32.3044 9.72166 32.2648 9.6928L32.2161 9.64591L32.1891 9.62246L32.1747 9.60804L32.1549 9.58999C32.0846 9.51965 32.0215 9.44935 31.9602 9.37721C31.9314 9.33934 31.899 9.29785 31.8665 9.25998C31.8395 9.2203 31.8143 9.18243 31.7908 9.14275C31.7656 9.10668 31.7422 9.0706 31.7224 9.03273C31.6899 8.97862 31.6593 8.92451 31.6305 8.8686C31.6107 8.82351 31.589 8.77483 31.571 8.72974C31.535 8.65219 31.5079 8.57283 31.4845 8.49528C31.4647 8.43937 31.4485 8.37803 31.4323 8.32212C31.3944 8.16161 31.3728 8.01196 31.3602 7.88391C31.353 7.83521 31.353 7.79009 31.3494 7.74681C31.3476 7.68729 31.3476 7.63318 31.3476 7.58989V7.49071C31.3494 7.40234 31.3602 7.28875 31.3764 7.1607C31.3872 7.08135 31.4034 6.99837 31.425 6.91C31.4395 6.85049 31.4539 6.79278 31.4737 6.73146C31.4935 6.67555 31.5115 6.62144 31.535 6.56012C31.5458 6.52225 31.562 6.4844 31.5818 6.44652C31.6052 6.39422 31.6305 6.34011 31.6575 6.28961C31.6773 6.24632 31.7008 6.2048 31.7242 6.16693C31.7746 6.07856 31.8341 5.99023 31.899 5.90186C31.9224 5.8694 31.9476 5.83872 31.9711 5.80626C32.0053 5.76839 32.0395 5.72509 32.0756 5.68721C32.0972 5.66918 32.1152 5.64755 32.1332 5.62771C32.4198 5.34276 32.7423 5.12816 33.0721 4.97666C33.1261 4.95502 33.1784 4.93156 33.2306 4.91172C33.2847 4.89008 33.3352 4.87026 33.3892 4.85222C33.4451 4.83238 33.5028 4.81611 33.5622 4.79988C33.6163 4.78365 33.6739 4.77105 33.728 4.75662C33.7821 4.744 33.8397 4.73317 33.892 4.72415C33.9514 4.71333 34.0109 4.70433 34.0722 4.69531C34.1317 4.68809 34.1911 4.68086 34.2524 4.67725C34.3659 4.66824 34.4758 4.66102 34.584 4.66102C34.6236 4.66102 34.6578 4.66104 34.6957 4.66465C34.7768 4.66465 34.8524 4.66824 34.9299 4.67004C34.9858 4.67726 35.0363 4.67724 35.0903 4.68265C35.184 4.69347 35.2831 4.70433 35.3696 4.71875C35.4507 4.73138 35.53 4.744 35.6003 4.75662C35.712 4.78187 35.8147 4.8053 35.9084 4.83235C35.9661 4.84498 36.0201 4.8612 36.0706 4.87743C36.1445 4.90088 36.2112 4.92075 36.2616 4.93698C36.3463 4.96764 36.3968 4.98387 36.3968 4.98387C36.4724 5.01093 36.5481 5.0434 36.622 5.07045C36.7229 5.11373 36.8166 5.15341 36.9067 5.19489C36.9824 5.23096 37.0527 5.26703 37.1212 5.29589C37.177 5.32474 37.2293 5.35357 37.2761 5.37701C37.3626 5.4221 37.4347 5.46178 37.4942 5.49425L37.6546 5.58082V4.04602C37.6546 4.04602 37.5554 4.00815 37.3933 3.94502C37.3194 3.91797 37.2329 3.88732 37.1338 3.85305C37.0797 3.83322 37.0221 3.81157 36.9608 3.78992C36.9121 3.7755 36.8635 3.75746 36.8112 3.74303C36.7518 3.72319 36.6941 3.69975 36.6328 3.68172C36.5842 3.6709 36.5409 3.6547 36.4905 3.64028L36.4508 3.62762C36.4058 3.61679 36.3571 3.60419 36.3157 3.59157C36.2562 3.57894 36.1985 3.5609 36.1445 3.54467C36.1084 3.53926 36.0688 3.53205 36.0328 3.52123C35.9697 3.5068 35.912 3.49236 35.849 3.48154C35.7859 3.46892 35.7228 3.45451 35.6579 3.44549Z" fill="white"/>
    <path fill-rule="evenodd" clip-rule="evenodd" d="M18.6651 8.18036V10.4293H20.1229C20.1229 10.4293 20.1535 10.4257 20.1968 10.4257C20.2472 10.4239 20.3175 10.4203 20.404 10.4149C20.559 10.3987 20.7698 10.3698 20.9734 10.2995C21.1554 10.2418 21.332 10.148 21.469 10.0109C21.523 9.9568 21.5663 9.9027 21.6023 9.84679C21.7141 9.66644 21.7429 9.48429 21.7501 9.38149C21.7537 9.33279 21.7537 9.30935 21.7537 9.30935C21.7537 9.30935 21.7537 9.28771 21.7537 9.25344C21.7537 9.21016 21.7465 9.12719 21.7249 9.03522C21.696 8.92881 21.6474 8.80617 21.5555 8.69075C21.5357 8.67091 21.5158 8.64927 21.496 8.62943C21.4564 8.58975 21.4113 8.55007 21.3645 8.514C21.2834 8.45629 21.1933 8.40579 21.0942 8.36431C20.9626 8.3048 20.8167 8.26332 20.6527 8.23446C20.5752 8.21823 20.4833 8.2038 20.3968 8.19839C20.3391 8.18937 20.2869 8.18757 20.2274 8.18396C20.1769 8.18036 20.1265 8.18036 20.0724 8.18036H18.6651Z" fill="white"/>
    <path fill-rule="evenodd" clip-rule="evenodd" d="M18.6651 4.75822V6.88995H19.3696C19.3696 6.88995 19.4165 6.88995 19.4796 6.88995C19.5318 6.88815 19.5859 6.88635 19.6381 6.88094C19.7823 6.87012 19.9859 6.85028 20.1842 6.79617C20.2274 6.78355 20.267 6.77092 20.3013 6.75649C20.4599 6.70059 20.6112 6.62123 20.732 6.504C20.8239 6.41203 20.8851 6.30923 20.9248 6.20823C20.9752 6.0874 20.9932 5.97197 21.0023 5.88901C21.0059 5.81326 21.0059 5.76818 21.0059 5.76818C21.0059 5.76818 21.0059 5.73211 21.0041 5.6762C21.0023 5.58422 20.9824 5.43272 20.9086 5.28844C20.8725 5.21811 20.8239 5.15138 20.7572 5.08645C20.6779 5.0089 20.5842 4.94578 20.4797 4.90069C20.2797 4.81232 20.0508 4.77805 19.8616 4.76723C19.7769 4.76182 19.7012 4.75822 19.6363 4.75822H18.6651Z" fill="white"/>
    <path fill-rule="evenodd" clip-rule="evenodd" d="M14.0015 1.85119H26.1524V13.2962H14.0015V1.85119ZM17.1875 3.45446V11.7001H20.2887C20.2887 11.7001 21.8024 11.738 22.6367 10.9048C23.3143 10.2248 23.2674 9.43671 23.2674 9.43671C23.2674 9.43671 23.3143 8.61793 22.6854 7.9849C22.1484 7.45107 21.4654 7.30496 21.4654 7.30496C21.4654 7.30496 21.7735 7.16429 22.0132 6.92442C22.1231 6.81441 22.5196 6.45552 22.5196 5.58803C22.5196 4.71333 21.9375 4.21014 21.9375 4.21014C21.9375 4.21014 21.2996 3.45446 19.8616 3.45446H17.1875Z" fill="white"/>
    <path fill-rule="evenodd" clip-rule="evenodd" d="M4.66321 8.18036V10.4293H6.12463C6.12463 10.4293 6.15166 10.4257 6.19851 10.4257C6.24716 10.4239 6.31924 10.4203 6.40394 10.4149C6.56251 10.3987 6.76974 10.3698 6.97157 10.2995C7.15537 10.2418 7.33197 10.148 7.47072 10.0109C7.52298 9.9568 7.56443 9.9027 7.60047 9.84679C7.71399 9.66644 7.74282 9.48429 7.74823 9.38149C7.75544 9.33279 7.75544 9.30935 7.75544 9.30935V9.25344C7.74823 9.21016 7.74462 9.12719 7.723 9.03522C7.69417 8.92881 7.64371 8.80617 7.55181 8.69075C7.5374 8.67091 7.51757 8.64927 7.49775 8.62943C7.4545 8.58975 7.41306 8.55007 7.36801 8.514C7.28512 8.45629 7.19321 8.40579 7.09591 8.36431C6.96256 8.3048 6.8166 8.26332 6.65442 8.23446C6.57513 8.21823 6.48503 8.2038 6.39673 8.19839C6.34267 8.18937 6.28501 8.18757 6.22914 8.18396C6.17869 8.18036 6.12643 8.18036 6.07417 8.18036H4.66321Z" fill="white"/>
    <path fill-rule="evenodd" clip-rule="evenodd" d="M4.66321 4.75822V6.88995H5.37139C5.37139 6.88995 5.41825 6.88995 5.47951 6.88995C5.52817 6.88815 5.58763 6.88635 5.63809 6.88094C5.78225 6.87012 5.98768 6.85028 6.1859 6.79617C6.22554 6.78355 6.26338 6.77092 6.30483 6.75649C6.4598 6.70059 6.61297 6.62123 6.7283 6.504C6.822 6.41203 6.88147 6.30923 6.92652 6.20823C6.97337 6.0874 6.99319 5.97197 7.0004 5.88901C7.00761 5.81326 7.00761 5.76818 7.00761 5.76818V5.6762C6.99679 5.58422 6.98058 5.43272 6.9085 5.28844C6.87246 5.21811 6.822 5.15138 6.76073 5.08645C6.67784 5.0089 6.58234 4.94578 6.47782 4.90069C6.2778 4.81232 6.05255 4.77805 5.85793 4.76723C5.77684 4.76182 5.69936 4.75822 5.63809 4.75822H4.66321Z" fill="white"/>
    <path fill-rule="evenodd" clip-rule="evenodd" d="M0 1.85119H12.1509V13.2962H0V1.85119ZM3.18774 3.45446V11.7001H6.28898C6.28898 11.7001 7.80085 11.738 8.63338 10.9048C9.31273 10.2248 9.26587 9.43671 9.26587 9.43671C9.26587 9.43671 9.31273 8.61793 8.68383 7.9849C8.14683 7.45107 7.46387 7.30496 7.46387 7.30496C7.46387 7.30496 7.77382 7.16429 8.00988 6.92442C8.12161 6.81441 8.51805 6.45552 8.51805 5.58803C8.51805 4.71333 7.936 4.21014 7.936 4.21014C7.936 4.21014 7.2999 3.45446 5.86371 3.45446H3.18774Z" fill="white"/>
    <path fill-rule="evenodd" clip-rule="evenodd" d="M1.35636 17.2976H2.23213C3.54578 17.2976 4.07557 17.8368 4.08819 18.7259C4.1008 19.5177 3.68634 20.2661 2.23213 20.2661H1.35636V17.2976ZM-0.000549316 16.1307V25.5919H1.35636V21.4853H1.92399C2.62136 21.4853 3.18538 21.7089 4.43597 23.6513L5.68295 25.5919H7.30295C6.65243 24.6937 6.41637 24.3727 6.01272 23.7198C5.29372 22.5421 4.76574 21.6674 3.90618 21.1011C4.91891 20.6954 5.48654 19.8784 5.48654 18.78C5.48654 17.1443 4.29542 16.1307 2.38349 16.1307H-0.000549316Z" fill="white"/>
    <path fill-rule="evenodd" clip-rule="evenodd" d="M11.7447 18.1588L13.271 21.5836H10.3301L11.7447 18.1588ZM12.242 16.0775H11.287L7.22528 25.591H8.60922L9.80394 22.8064H13.8224L15.0838 25.591H16.4695L12.242 16.0775Z" fill="white"/>
    <path fill-rule="evenodd" clip-rule="evenodd" d="M18.957 17.3529H21.0455C23.6963 17.3529 24.9018 18.9617 24.9018 20.8626C24.9018 22.0276 24.1954 24.3722 21.1194 24.3722H18.957V17.3529ZM17.5983 25.5913H21.2834C24.4044 25.5913 26.3001 23.2901 26.3001 20.8626C26.3001 18.6298 24.7612 16.1302 21.2708 16.1302H17.5983V25.5913Z" fill="white"/>
    <path fill-rule="evenodd" clip-rule="evenodd" d="M27.8661 16.1313H29.223V25.5925H27.8661V16.1313Z" fill="white"/>
    <path fill-rule="evenodd" clip-rule="evenodd" d="M32.19 20.8633C32.19 18.7803 33.7577 17.2581 35.8625 17.2581C37.9852 17.2581 39.5512 18.7803 39.5512 20.8633C39.5512 22.9301 37.9852 24.4703 35.8625 24.4703C33.7577 24.4703 32.19 22.9301 32.19 20.8633ZM30.7899 20.8633C30.7899 23.4297 32.7468 25.7165 35.8355 25.7165C39.0376 25.7165 40.9495 23.4135 40.9495 20.8633C40.9495 18.2284 38.9835 16.0083 35.8625 16.0083C32.7991 16.0083 30.7899 18.241 30.7899 20.8633Z" fill="white"/>
    <path d="M84.5541 50.1123H74.0034V21.4114H69.493L75.7207 9.84555H84.5541V50.1123ZM79.0418 0.00204086C62.4976 0.00204086 49.0854 13.4327 49.0854 30.0015C49.0854 46.5702 62.4976 59.9991 79.0418 59.9991C95.5895 59.9991 109 46.5702 109 30.0015C109 13.4327 95.5895 0.00204086 79.0418 0.00204086Z" fill="white"/>
</svg>
