<svg viewBox="0 0 160 60" fill="none"
    xmlns="http://www.w3.org/2000/svg">
    <path fill-rule="evenodd" clip-rule="evenodd" d="M8.5125 51.1898L17.7389 7.8107H25.0851L21.7034 23.4365L27.4757 7.8107H34.8219L27.0863 27.4597L25.7705 51.1898H18.0746L19.4337 34.1064L15.859 51.1898H8.5125Z" fill="#FEFEFE"/>
    <path fill-rule="evenodd" clip-rule="evenodd" d="M49.106 7.8107L47.6922 14.4575H42.4449L40.2003 25.011H44.6314L43.168 31.8908H38.7371L36.0709 44.4264H41.4929L40.0546 51.1898H27.4025L36.6289 7.8107H49.106Z" fill="#FEFEFE"/>
    <path fill-rule="evenodd" clip-rule="evenodd" d="M73.5842 25.9435H74.1673C74.692 25.9435 75.0578 25.5938 75.1942 24.9524L77.4639 14.2825C77.6124 13.583 77.5583 13.2914 76.9164 13.2914H76.2752L73.5842 25.9435ZM68.2147 51.1895H60.8101L70.0363 7.8107H81.5223C84.0878 7.8107 85.781 9.44323 85.0249 13L82.8547 23.2032C82.222 26.1769 80.5748 27.3427 79.2388 27.8674C80.3516 28.3925 81.6071 29.6169 81.1235 31.8909L77.465 49.0906C77.2791 49.9653 77.0125 51.1895 77.0125 51.1895H69.6767C69.7195 50.5963 69.8246 50.1984 69.9982 49.382L73.4583 33.1153C73.5944 32.4739 73.5527 32.1239 72.8527 32.1239H72.2696L68.2147 51.1895Z" fill="#FEFEFE"/>
    <path fill-rule="evenodd" clip-rule="evenodd" d="M55.172 25.9435H55.755C56.2797 25.9435 56.6455 25.5938 56.7819 24.9524L59.0513 14.2825C59.2001 13.583 59.146 13.2914 58.5041 13.2914H57.863L55.172 25.9435ZM49.8021 51.1895H42.3975L51.624 7.8107H63.11C65.6753 7.8107 67.3687 9.44323 66.6126 13L64.4424 23.2032C63.8097 26.1769 62.1625 27.3427 60.8265 27.8674C61.9393 28.3925 63.1948 29.6169 62.7112 31.8909L59.0528 49.0906C58.8668 49.9653 58.6002 51.1895 58.6002 51.1895H51.2644C51.3072 50.5963 51.4123 50.1984 51.5859 49.382L55.046 33.1153C55.1821 32.4739 55.1404 32.1239 54.4404 32.1239H53.8573L49.8021 51.1895Z" fill="#FEFEFE"/>
    <path fill-rule="evenodd" clip-rule="evenodd" d="M93.3363 20.5212L88.9522 37.0215H90.7011L93.3363 20.5212ZM89.6995 43.3769H87.1923L85.1227 51.1898H78.7676L91.6085 7.8107H100.938L95.6175 51.1898H88.4457L89.6995 43.3769Z" fill="#FEFEFE"/>
    <path fill-rule="evenodd" clip-rule="evenodd" d="M113.997 7.8107L111.856 31.3075L116.796 7.8107H122.918L113.691 51.1898H106.87L108.961 25.1857L103.488 51.1898H97.3078L106.535 7.8107H113.997Z" fill="#FEFEFE"/>
    <path fill-rule="evenodd" clip-rule="evenodd" d="M121.709 51.5978C117.803 51.5978 116.644 48.2747 117.463 44.4263L123.737 14.9239C124.593 10.9007 127.319 7.40262 133.15 7.40262H134.141C140.03 7.40262 140.989 10.8427 140.245 14.3411L138.174 24.0779H131.061L133.07 14.6325C133.218 13.9327 133.13 13.5247 132.431 13.5247C131.906 13.5247 131.54 13.8744 131.379 14.6325L125.079 44.2513C124.893 45.1261 125.144 45.5925 125.844 45.5925C126.543 45.5925 126.992 45.1261 127.178 44.2513L129.931 31.3075H128.415L129.618 25.6521H138.13L132.699 51.1898H127.743C127.704 50.5484 127.69 48.9742 127.568 48.4495C126.242 50.0239 124.391 51.5978 121.884 51.5978H121.709Z" fill="#FEFEFE"/>
    <path fill-rule="evenodd" clip-rule="evenodd" d="M141.562 51.1898H135.265L136.865 43.6686H143.162L141.562 51.1898ZM151.488 7.8107C150.917 10.4927 143.558 36.322 142.206 42.6774H138.241C139.605 36.2637 143.267 10.551 143.85 7.8107H151.488Z" fill="#FEFEFE"/>
</svg>
