<svg viewBox="0 0 180 60" fill="none"
    xmlns="http://www.w3.org/2000/svg">
    <path d="M125.495 36.6601H105.607C105.787 38.0941 106.207 39.1765 106.897 39.88C107.857 40.8811 109.116 41.3952 110.646 41.3952C111.636 41.3952 112.566 41.1788 113.436 40.7458C113.976 40.4752 115.116 39.0412 115.746 38.3377L125.495 39.1765C123.995 41.5305 121.625 44.1281 119.526 45.1563C117.426 46.1845 114.396 46.6715 110.436 46.6715C107.017 46.6715 104.317 46.2386 102.337 45.3727C100.357 44.5069 98.7374 43.1269 97.4475 41.2058C96.1576 39.3118 95.4977 37.0659 95.4977 34.5225C95.4977 30.8697 96.7876 27.9204 99.3973 25.6745C101.977 23.4287 105.577 22.2923 110.136 22.2923C113.856 22.2923 116.766 22.8064 118.926 23.8075C121.085 24.8087 122.705 26.2698 123.815 28.1909C124.925 30.112 125.495 32.6014 125.495 35.686V36.6601ZM115.416 32.3579C115.236 30.6261 114.696 29.4085 113.856 28.6509C113.016 27.8933 111.906 27.5415 110.556 27.5415C108.966 27.5415 107.707 28.1098 106.777 29.2462C106.177 29.9497 105.787 31.005 105.637 32.3849H115.416V32.3579Z" fill="#F7FAFC"/>
    <path d="M122.345 22.7794H132.664L137.674 37.5801L142.893 22.7794H152.882L141.903 46.1304H133.114L122.345 22.7794Z" fill="#F7FAFC"/>
    <path d="M180 36.6601H160.112C160.292 38.0942 160.712 39.1765 161.402 39.88C162.362 40.8811 163.621 41.3952 165.151 41.3952C166.141 41.3952 167.071 41.1788 167.941 40.7458C168.481 40.4753 169.621 39.1494 170.251 38.4459L180 39.2577C178.5 41.6117 176.13 44.101 174.031 45.1292C171.931 46.1574 168.901 46.6445 164.941 46.6445C161.522 46.6445 158.822 46.2116 156.842 45.3457C154.862 44.4798 153.242 43.0999 151.953 41.1788C150.663 39.2847 150.003 37.0389 150.003 34.4955C150.003 30.8426 151.293 27.8933 153.902 25.6475C156.482 23.4017 160.082 22.2653 164.641 22.2653C168.361 22.2653 171.271 22.7794 173.431 23.7805C175.59 24.7817 177.21 26.2428 178.32 28.1639C179.43 30.085 180 32.5743 180 35.659V36.6601ZM169.891 32.3579C169.711 30.6262 169.171 29.4086 168.331 28.6509C167.491 27.8933 166.381 27.5416 165.031 27.5416C163.441 27.5416 162.182 28.1098 161.252 29.2462C160.652 29.9497 160.262 31.005 160.112 32.3849H169.891V32.3579Z" fill="#F7FAFC"/>
    <path d="M58.931 13.8773H70.2999L83.7387 31.7085V13.8773H94.1478V46.1304H83.7387L70.3899 28.3803V46.1304H58.931V13.8773Z" fill="#F7FAFC"/>
    <path d="M0.526254 48.2679L14.295 15.5007C14.295 15.5007 15.3449 12.795 17.5647 12.795C17.5647 12.795 18.8546 12.6326 20.3845 13.9584C21.9143 15.2572 34.6632 26.0263 34.6632 26.0263C34.6632 26.0263 36.433 27.731 38.7428 27.731C41.0826 27.731 42.4925 26.0534 42.4925 26.0534L55.0613 10.928C55.0613 10.928 55.9012 9.89975 56.2012 10.008C56.2912 10.035 56.0812 10.7656 55.9012 11.1715L41.0526 45.2645C41.0526 45.2645 39.9727 48.1327 37.7529 48.1327C37.7529 48.1327 36.703 48.4303 34.7232 46.6715L20.9544 34.3602C20.9544 34.3602 18.9146 32.6826 16.9648 32.6826C16.9648 32.6826 14.715 32.4932 12.7051 35.0095L2.2361 47.8621C2.2361 47.8621 0.466259 49.9726 0.106292 49.9997C-0.253676 50.0267 0.406265 48.4573 0.526254 48.2679Z" fill="#F7FAFC"/>
</svg>
