<svg viewBox="0 0 160 60" fill="none"
    xmlns="http://www.w3.org/2000/svg">
    <g clip-path="url(#clip0)">
        <path d="M90.6867 28.5195C87.8283 28.5195 85.9046 26.1747 85.9046 23.4481V23.3936C85.9046 20.6671 87.8012 18.3877 90.6541 18.3877C93.507 18.3877 95.409 20.7216 95.409 23.4481V23.5027C95.409 26.2292 93.5125 28.5086 90.6867 28.5086V28.5195ZM90.6324 33.1928C96.398 33.1928 100.718 28.8303 100.718 23.4481V23.3936C100.718 18.0114 96.4469 13.7035 90.6867 13.7035C84.9265 13.7035 80.6009 18.066 80.6009 23.4481V23.5027C80.6009 28.8848 84.8722 33.1928 90.6324 33.1928ZM72.6235 32.8165H77.8023V14.0907H72.6235V32.8165ZM59.337 18.6385C62.4617 18.6385 64.5158 20.4053 64.5158 23.4045V23.459C64.5158 26.4855 62.4617 28.1978 59.337 28.1978H57.2286V18.6658L59.337 18.6385ZM52.0552 32.8165H59.174C65.8689 32.8165 69.7923 28.7976 69.7923 23.3936V23.3391C69.7923 17.9296 65.9232 14.0689 59.2772 14.0689H52.0498L52.0552 32.8165ZM37.6438 25.4167L39.7523 20.1163L41.8336 25.4167H37.6438ZM29.3893 32.8329H34.8235L36.1223 29.4465H43.3497L44.6865 32.8219H50.2348L42.2846 13.9544H37.296L29.3893 32.8329ZM17.1788 23.0828V18.5404H20.5914C22.3249 18.5404 23.4117 19.3093 23.4117 20.8089V20.8634C23.4117 22.2267 22.3738 23.0882 20.6349 23.0882L17.1788 23.0828ZM12 32.8329H17.1788V27.1562H19.472L23.2324 32.8329H29.1828L24.7268 26.2892C25.8918 25.8523 26.8901 25.0581 27.5798 24.0195C28.2694 22.9809 28.6155 21.7507 28.5688 20.5035V20.449C28.6093 19.6485 28.4854 18.8483 28.205 18.0979C27.9246 17.3475 27.4935 16.6629 26.9385 16.0865C25.6832 14.8269 23.7106 14.0798 20.8577 14.0798H12V32.8329Z" fill="white"/>
        <path d="M139.985 46.351H137.801V59.9946H139.985V46.351Z" fill="white"/>
        <path d="M143.86 52.7802H141.675V59.9945H143.86V52.7802Z" fill="white"/>
        <path d="M128.373 29.2884H126.188V52.7856H128.373V29.2884Z" fill="white"/>
        <path d="M132.242 34.8505H130.057V59.9945H132.242V34.8505Z" fill="white"/>
        <path d="M136.116 41.2033H133.932V59.9945H136.116V41.2033Z" fill="white"/>
        <path d="M105.136 29.2884H102.952V49.2466H105.136V29.2884Z" fill="white"/>
        <path d="M108.994 24.6587H106.81V49.2302H108.994V24.6587Z" fill="white"/>
        <path d="M97.3925 41.2142H95.2079V49.2466H97.3925V41.2142Z" fill="white"/>
        <path d="M101.267 34.8723H99.0825V49.2411H101.267V34.8723Z" fill="white"/>
        <path d="M147.74 57.966H145.555V59.9945H147.74V57.966Z" fill="white"/>
        <path d="M93.5179 47.1744H91.3334V49.2029H93.5179V47.1744Z" fill="white"/>
        <path d="M112.88 6.00928H110.695V41.1815H112.88V6.00928Z" fill="white"/>
        <path d="M120.629 6.00928H118.444V41.1815H120.629V6.00928Z" fill="white"/>
        <path d="M116.754 10.2245H114.57V36.9717H116.754V10.2245Z" fill="white"/>
        <path d="M128.367 0H126.183V17.3789H128.367V0Z" fill="white"/>
        <path d="M132.242 0H130.057V11.6805H132.242V0Z" fill="white"/>
        <path d="M136.116 0H133.932V6.0529H136.116V0Z" fill="white"/>
        <path d="M105.136 0H102.952V17.4389H105.136V0Z" fill="white"/>
        <path d="M109.011 0H106.826V22.4666H109.011V0Z" fill="white"/>
        <path d="M97.3925 0H95.2079V6.05835H97.3925V0Z" fill="white"/>
        <path d="M101.262 0H99.0771V11.6805H101.262V0Z" fill="white"/>
        <path d="M93.5179 0H91.3334V2.02854H93.5179V0Z" fill="white"/>
        <path d="M139.985 0H137.801V2.02854H139.985V0Z" fill="white"/>
        <path d="M124.498 0H122.314V22.4666H124.498V0Z" fill="white"/>
        <path d="M124.493 24.6587H122.308V49.2302H124.493V24.6587Z" fill="white"/>
        <path d="M90.665 42.5339C91.1204 42.5482 91.5718 42.4443 91.9754 42.2322C92.3791 42.0201 92.7213 41.707 92.9691 41.3233L91.8822 40.538C91.7517 40.7334 91.5755 40.8937 91.369 41.0049C91.1625 41.1162 90.932 41.1749 90.6976 41.1761C90.5217 41.1707 90.3487 41.1295 90.1891 41.0551C90.0295 40.9806 89.8867 40.8743 89.7693 40.7427C89.6519 40.6111 89.5624 40.457 89.5061 40.2896C89.4499 40.1223 89.4282 39.9452 89.4423 39.7692V39.7692C89.4298 39.5937 89.4526 39.4176 89.5095 39.2512C89.5663 39.0848 89.656 38.9316 89.7732 38.8008C89.8904 38.67 90.0326 38.5642 90.1914 38.4898C90.3503 38.4154 90.5224 38.3739 90.6976 38.3677C90.9237 38.3717 91.1457 38.4296 91.3451 38.5368C91.5445 38.6439 91.7156 38.7972 91.8442 38.9839L92.931 38.1333C92.6803 37.7788 92.345 37.4932 91.9557 37.3027C91.5664 37.1121 91.1357 37.0227 90.703 37.0426C90.3426 37.0369 89.9845 37.1031 89.6499 37.2375C89.3152 37.372 89.0105 37.5719 88.7536 37.8256C88.4966 38.0794 88.2926 38.3819 88.1534 38.7156C88.0141 39.0493 87.9424 39.4074 87.9424 39.7692V39.7692C87.9358 40.1291 88.0016 40.4866 88.1358 40.8204C88.27 41.1542 88.4698 41.4574 88.7235 41.7119C88.9771 41.9665 89.2793 42.1671 89.612 42.3017C89.9446 42.4364 90.3009 42.5024 90.6595 42.4957L90.665 42.5339ZM85.7036 42.3921H87.1599V37.1299H85.7036V42.3921ZM82.8343 42.4848C84.1114 42.4848 84.9591 41.8468 84.9591 40.7671C84.9591 39.7801 84.2092 39.3875 83.0082 39.1312C82.2746 38.9676 82.0899 38.8585 82.0899 38.6186C82.0899 38.4223 82.2637 38.2805 82.6333 38.2805C83.1687 38.3044 83.6834 38.495 84.1059 38.8258L84.8178 37.7406C84.1994 37.2547 83.4289 37.0054 82.6441 37.0372C81.3834 37.0372 80.6118 37.7461 80.6118 38.7276C80.6118 39.8182 81.4758 40.1236 82.5952 40.3636C83.318 40.538 83.4864 40.6471 83.4864 40.8761C83.4864 41.0997 83.2745 41.236 82.8778 41.236C82.2535 41.2282 81.6509 41.0048 81.1715 40.6035L80.3618 41.5741C81.0487 42.1567 81.9243 42.467 82.8235 42.4466L82.8343 42.4848ZM77.4328 42.4466C78.9272 42.4466 79.8945 41.6941 79.8945 39.9982V37.1299H78.4218V40.0964C78.4218 40.8325 78.0414 41.187 77.4436 41.187C76.8459 41.187 76.4764 40.8271 76.4764 40.0636V37.1299H75.0363V40.0909C75.0363 41.7268 75.9764 42.5012 77.4599 42.5012L77.4328 42.4466ZM68.5805 42.403H70.0043V39.3875L71.3302 41.4433H71.3628L72.7051 39.3765V42.403H74.156V37.1299H72.6181L71.3628 39.1693L70.1075 37.1299H68.5697L68.5805 42.403ZM61.5868 42.403H65.8526V41.1651H63.0268V40.3526H65.5483V39.1748H63.0105V38.3677H65.7982V37.1299H61.5705L61.5868 42.403ZM55.8754 42.403H57.3318V40.4017H59.2012V42.403H60.6575V37.1299H59.1849V39.1039H57.3155V37.1299H55.8591L55.8754 42.403ZM52.202 42.403H53.6583V38.4114H55.2342V37.1299H50.6152V38.4114H52.1856L52.202 42.403Z" fill="white"/>
        <path d="M45.7407 41.1924C45.5579 41.1911 45.3771 41.1529 45.2093 41.08C45.0414 41.0072 44.8899 40.9013 44.7636 40.7685C44.6374 40.6357 44.539 40.4788 44.4745 40.3072C44.4099 40.1355 44.3803 39.9525 44.3876 39.7691V39.7691C44.3796 39.5877 44.4081 39.4066 44.4716 39.2365C44.5351 39.0665 44.6322 38.9111 44.7571 38.7797C44.882 38.6483 45.032 38.5435 45.1983 38.4718C45.3645 38.4001 45.5435 38.3628 45.7244 38.3623C45.9068 38.3635 46.0871 38.4018 46.2544 38.4747C46.4217 38.5477 46.5725 38.6538 46.6979 38.7867C46.8233 38.9197 46.9206 39.0767 46.984 39.2483C47.0473 39.42 47.0755 39.6027 47.0667 39.7855C47.0747 39.9664 47.0463 40.1472 46.9831 40.3168C46.92 40.4865 46.8234 40.6417 46.6991 40.773C46.5748 40.9043 46.4254 41.0092 46.2598 41.0812C46.0942 41.1533 45.9158 41.1911 45.7353 41.1924H45.7407ZM45.7353 42.512C46.1007 42.5229 46.4647 42.4607 46.8059 42.329C47.1471 42.1974 47.4588 41.9989 47.7228 41.7451C47.9869 41.4913 48.1979 41.1874 48.3437 40.8509C48.4895 40.5145 48.567 40.1523 48.5719 39.7855C48.5719 39.032 48.2736 38.3094 47.7427 37.7766C47.2117 37.2438 46.4916 36.9445 45.7407 36.9445C44.9899 36.9445 44.2697 37.2438 43.7388 37.7766C43.2078 38.3094 42.9095 39.032 42.9095 39.7855V39.7855C42.9092 40.1529 42.983 40.5166 43.1262 40.8547C43.2695 41.1928 43.4795 41.4984 43.7434 41.7531C44.0073 42.0077 44.3198 42.2062 44.6621 42.3366C45.0044 42.4671 45.3694 42.5267 45.7353 42.512V42.512ZM39.6382 42.4084H41.0945V38.4113H42.6704V37.1299H38.084V38.4113H39.6545L39.6382 42.4084ZM32.4596 42.4084H33.8997V39.5128L36.1549 42.4084H37.4265V37.1299H35.9755V39.9164L33.8019 37.1299H32.4433L32.4596 42.4084ZM30.0414 42.4084H31.4978V37.1299H30.036L30.0414 42.4084ZM24.254 42.4084H25.7104V38.4113H27.2863V37.1299H22.6781V38.4113H24.2486L24.254 42.4084ZM17.9558 42.4084H22.2217V41.1651H19.3905V40.3526H21.9119V39.1748H19.3905V38.3677H22.1782V37.1299H17.945L17.9558 42.4084ZM14.8529 42.5338C15.6872 42.5411 16.4966 42.2491 17.1353 41.7104V39.3274H14.7171V40.4181H15.755V41.0561C15.5031 41.2135 15.2091 41.2896 14.9127 41.2742C14.7212 41.2789 14.5308 41.244 14.3534 41.1714C14.176 41.0989 14.0154 40.9904 13.8817 40.8526C13.7481 40.7149 13.6442 40.551 13.5766 40.3711C13.509 40.1912 13.4792 39.9993 13.489 39.8073V39.8073C13.481 39.6239 13.5095 39.4407 13.573 39.2685C13.6365 39.0963 13.7335 38.9385 13.8585 38.8044C13.9836 38.6703 14.134 38.5626 14.301 38.4876C14.468 38.4127 14.6483 38.3719 14.8312 38.3677C15.3027 38.3637 15.7578 38.5413 16.1028 38.8639L16.956 37.7897C16.3689 37.272 15.6069 36.9989 14.8258 37.0263C14.4599 37.0116 14.0949 37.0712 13.7526 37.2016C13.4103 37.3321 13.0978 37.5306 12.8339 37.7852C12.5699 38.0399 12.36 38.3455 12.2167 38.6836C12.0734 39.0217 11.9997 39.3854 12 39.7528V39.7528C11.9995 40.1226 12.0741 40.4887 12.219 40.8287C12.364 41.1687 12.5764 41.4755 12.8432 41.7306C13.1101 41.9856 13.4259 42.1835 13.7714 42.3122C14.1169 42.441 14.4849 42.4978 14.8529 42.4793" fill="white"/>
    </g>
    <defs>
        <clipPath id="clip0">
            <rect width="135.74" height="60" fill="white" transform="translate(12)"/>
        </clipPath>
    </defs>
</svg>
