<svg viewBox="0 0 160 60" fill="none"
    xmlns="http://www.w3.org/2000/svg">
    <path d="M67.9839 38.8639H67.6962L66.2423 48.1157H69.4378L67.9839 38.8639Z" fill="#F7FAFC"/>
    <path d="M29.6375 60H130.638V31.2402H29.6375V60ZM106.088 34.9531H116.22V37.8138H109.102V42.9876H114.993V45.8483H109.102V52.7568H116.401V55.6175H106.103V34.9531H106.088ZM83.3406 49.896H86.4756C86.6422 51.9046 87.46 53.0611 88.7321 53.0611C90.0951 53.0611 90.9432 52.2698 90.9432 51.0068C90.9432 49.0591 89.3985 47.7657 87.7629 46.3961C85.8395 44.7984 83.6738 42.9724 83.6738 39.7616C83.6738 36.5356 85.6426 34.6792 89.0805 34.6792C91.7762 34.6792 93.5784 36.5356 93.9116 39.6246L93.9268 39.8377L90.7615 39.8529C90.5343 37.7073 89.1562 37.5399 88.7321 37.5399C87.5054 37.5399 86.8087 38.3464 86.8087 39.7312C86.8087 41.3746 88.2929 42.6376 89.868 43.9767C91.8519 45.6657 94.0782 47.5831 94.0782 50.6873C94.0782 53.9133 91.9579 55.9219 88.5655 55.9219C85.1277 55.9219 83.4618 53.0763 83.3406 50.2612V49.896ZM65.7273 34.9531H69.9376L73.7237 55.6175H70.5433L69.9073 50.9764H65.7425L65.1064 55.6175H61.926L65.7273 34.9531ZM42.1319 39.8986C42.1319 36.0487 44.8882 34.6792 47.478 34.6792C49.9768 34.6792 52.6575 36.1552 52.6575 40.279V40.7659H49.3559V40.1877C49.3559 38.2247 48.3866 37.5247 47.4931 37.5247C46.0392 37.5247 45.4486 38.2399 45.4486 39.9746V50.5808C45.4486 52.3307 46.0392 53.0307 47.4931 53.0307C48.7804 53.0307 49.3559 52.3307 49.3559 50.7786V49.7134H52.6423V50.6569C52.6423 54.5067 49.9768 55.8762 47.4628 55.8762C44.8731 55.8762 42.1167 54.5067 42.1167 50.6569V39.8986H42.1319Z" fill="#F7FAFC"/>
    <path d="M29.6375 0V28.7598H130.638V0H29.6375ZM47.2357 24.7274C43.7978 24.7274 42.1319 21.8818 42.0107 19.0667V18.7167H45.1457C45.3123 20.7253 46.1301 21.8818 47.4022 21.8818C48.7653 21.8818 49.6134 21.0905 49.6134 19.8275C49.6134 17.8798 48.0686 16.5864 46.433 15.2168C44.5096 13.6191 42.3439 11.793 42.3439 8.5823C42.3439 5.35633 44.3127 3.49987 47.7506 3.49987C50.4463 3.49987 52.2485 5.35633 52.5817 8.44534L52.5969 8.65838L49.4316 8.6736C49.2045 6.52802 47.8263 6.36064 47.4022 6.36064C46.1755 6.36064 45.4789 7.16713 45.4789 8.55186C45.4789 10.1953 46.963 11.4583 48.5381 12.7974C50.5221 14.4864 52.7483 16.4038 52.7483 19.508C52.7635 22.7187 50.6432 24.7274 47.2357 24.7274ZM72.9513 24.4382H69.6498V15.156H65.5759V24.4382H62.2743V3.77378H65.5759V12.2952H69.6498V3.77378H72.9513V24.4382ZM94.0479 19.4928C94.0479 23.3426 91.2916 24.7121 88.7018 24.7121C86.1121 24.7121 83.3558 23.3426 83.3558 19.4928V8.71925C83.3558 4.86939 86.1121 3.49987 88.7018 3.49987C91.2916 3.49987 94.0479 4.86939 94.0479 8.71925V19.4928ZM116.25 24.5143H113.342L110.753 10.7279L110.737 10.6822H110.586L108.163 24.5143H105.255L101.317 3.69769H104.558L106.754 17.0276H106.906L109.238 3.69769H112.085L114.493 16.982L114.508 17.0276H114.66L116.644 3.69769H119.885L116.25 24.5143Z" fill="#F7FAFC"/>
    <path d="M88.7018 6.34549C87.2479 6.34549 86.6573 7.06068 86.6573 8.7954V19.4168C86.6573 21.1667 87.2479 21.8667 88.7018 21.8667C90.1557 21.8667 90.7464 21.1515 90.7464 19.4168V8.7954C90.7464 7.06068 90.1557 6.34549 88.7018 6.34549Z" fill="#F7FAFC"/>
</svg>
