<svg viewBox="0 0 160 60" fill="none"
    xmlns="http://www.w3.org/2000/svg">
    <path d="M73.3378 43.0304C73.3378 46.1586 72.1127 47.9343 66.0355 47.9343C65.2366 47.9343 64.5423 47.8863 63.8507 47.7903V6.41988C63.8507 3.28047 64.9149 0 71.0458 0C71.8474 0 72.5926 0.0705356 73.3378 0.239978V43.0304ZM60.3309 36.7658C60.3309 42.5816 56.5457 46.8361 48.868 47.6689C43.2706 48.2703 35.1666 47.5672 31.3305 47.1297C31.1697 46.5001 31.0625 45.718 31.0625 45.0885C31.0625 40.0068 33.7807 38.8325 36.3945 38.8325C39.0591 38.8325 43.2705 39.318 46.4178 39.318C49.8277 39.318 50.8946 38.1549 50.8946 37.0369C50.8946 35.5746 49.5087 34.9675 46.8441 34.4622L39.4853 33.0478C33.4081 31.8762 30.1564 27.6726 30.1564 23.2006C30.1564 17.7463 33.9952 13.1925 41.5656 12.3654C47.2702 11.7358 54.2536 12.4389 58.0925 12.9046C58.2506 13.5596 58.3042 14.1948 58.3042 14.8498C58.3042 19.9371 55.6395 21.0353 53.0258 21.0353C51.1091 21.0353 48.0155 20.6682 44.4984 20.6682C40.9249 20.6682 39.4317 21.6592 39.4317 22.8534C39.4317 24.121 40.8713 24.6292 43.0588 25.0385L50.0958 26.3288C57.24 27.6414 60.3309 31.7322 60.3309 36.7658ZM98.821 59.0433C99.6226 59.464 101.22 59.9439 103.301 59.9975C106.818 60.0654 108.737 58.7328 110.177 55.5454L129.156 13.2405C128.411 12.8284 126.65 12.3598 125.21 12.3428C122.811 12.2892 119.506 12.7748 117.428 17.7605L111.297 32.2601L99.2473 12.6534C98.4484 12.4134 96.5826 12.0774 95.1967 12.0774C90.9316 12.0774 88.5323 13.633 86.0794 16.3065L74.4048 29.1293L83.7874 43.9367C85.5487 46.6441 87.8407 48.0247 91.5187 48.0247C93.9716 48.0247 95.9955 47.4656 96.9552 47.0026L85.6532 29.9226L93.6499 21.3882L106.818 42.0904" fill="#F7FAFC"/>
</svg>
