<svg viewBox="0 0 40 40" fill="none"
    xmlns="http://www.w3.org/2000/svg">
    <path fill-rule="evenodd" clip-rule="evenodd" d="M16.1613 20.1291V34.4517C16.1613 34.6452 16.3226 34.8388 16.5484 34.8388H21.871C22.0645 34.8388 22.2581 34.6775 22.2581 34.4517V19.871H26.0968C26.2903 19.871 26.4516 19.7097 26.4839 19.5162L26.8064 15.1613C26.8387 14.9355 26.6452 14.742 26.4194 14.742H22.2258V11.6452C22.2258 10.9033 22.8064 10.3226 23.5484 10.3226H26.5161C26.7097 10.3226 26.9032 10.1613 26.9032 9.93554V5.5807C26.9032 5.38715 26.7419 5.1936 26.5161 5.1936H21.4839C18.5484 5.1936 16.1613 7.5807 16.1613 10.5162V14.742H13.5161C13.3226 14.742 13.129 14.9033 13.129 15.1291V19.5162C13.129 19.7097 13.2903 19.9033 13.5161 19.9033H16.1613V20.1291Z" fill="none"/>
</svg>
