<svg viewBox="0 0 40 40" fill="none"
    xmlns="http://www.w3.org/2000/svg">
    <path d="M28.129 10.8388C27.129 10.8388 26.3226 11.6452 26.3226 12.6452C26.3226 13.6452 27.129 14.4517 28.129 14.4517C29.129 14.4517 29.9355 13.6452 29.9355 12.6452C29.9355 11.6452 29.129 10.8388 28.129 10.8388ZM20.0645 13.1614C15.871 13.1614 12.4516 16.5807 12.4516 20.7743C12.4516 24.9678 15.871 28.3872 20.0645 28.3872C24.2581 28.3872 27.6774 24.9678 27.6774 20.7743C27.6774 16.5807 24.2581 13.1614 20.0645 13.1614ZM20.0645 25.6775C17.3549 25.6775 15.1936 23.484 15.1936 20.8065C15.1936 18.0969 17.3871 15.9356 20.0645 15.9356C22.7742 15.9356 24.9355 18.1291 24.9355 20.8065C24.9355 23.484 22.7419 25.6775 20.0645 25.6775ZM35.4516 14.4517C35.4516 9.32267 31.2903 5.16138 26.1613 5.16138H13.871C8.74195 5.16138 4.58066 9.32267 4.58066 14.4517V26.742C4.58066 31.8711 8.74195 36.0323 13.871 36.0323H26.129C31.2581 36.0323 35.4194 31.8711 35.4194 26.742V14.4517H35.4516ZM32.5161 26.7098C32.5161 30.2259 29.6452 33.0969 26.129 33.0969H13.871C10.3549 33.0969 7.48388 30.2259 7.48388 26.7098V14.4517C7.48388 10.9033 10.3226 8.0646 13.871 8.0646H26.129C29.6452 8.0646 32.5161 10.9356 32.5161 14.4517V26.7098Z" fill="none"/>
</svg>
