<svg viewBox="0 0 40 40" fill="none"
    xmlns="http://www.w3.org/2000/svg">
    <path d="M34.2903 11.8064C33.3871 12.2257 32.3548 12.4838 31.3871 12.6451C31.871 12.5806 32.5484 11.7096 32.8387 11.387C33.2581 10.8709 33.6129 10.258 33.8065 9.61282C33.8387 9.54831 33.8387 9.48379 33.8065 9.45153C33.7419 9.41928 33.7097 9.45153 33.6452 9.45153C32.5484 10.0322 31.4194 10.4838 30.1935 10.7741C30.0968 10.8064 30.0323 10.7741 29.9677 10.7096C29.871 10.5806 29.7742 10.4838 29.6774 10.387C29.1613 9.96766 28.6129 9.61282 28 9.35476C27.1935 9.03218 26.2903 8.87089 25.4194 8.93541C24.5806 8.99992 23.7419 9.22573 23 9.61282C22.2581 9.99992 21.5806 10.5483 21.0323 11.2257C20.4839 11.9031 20.0645 12.7096 19.871 13.5806C19.6774 14.4193 19.6774 15.2257 19.8065 16.0644C19.8387 16.1935 19.8065 16.2257 19.6774 16.1935C14.9032 15.5161 10.9677 13.8386 7.77419 10.1935C7.64516 10.0322 7.54839 10.0322 7.45161 10.1935C6.06452 12.2902 6.74194 15.6451 8.48387 17.3225C8.70968 17.5483 8.96774 17.7741 9.22581 17.9677C9.12903 17.9999 7.96774 17.8709 6.93548 17.3225C6.80645 17.2257 6.74194 17.2902 6.70968 17.4515C6.70968 17.6773 6.70968 17.8709 6.74194 18.129C7 20.258 8.48387 22.2257 10.4839 22.9677C10.7097 23.0644 11 23.1612 11.2581 23.1935C10.8065 23.2902 10.3226 23.3548 9 23.258C8.83871 23.2257 8.77419 23.3225 8.83871 23.4515C9.80645 26.1612 11.9355 26.9677 13.5484 27.4193C13.7742 27.4515 13.9677 27.4515 14.1935 27.5161C14.1935 27.5483 14.1613 27.5483 14.1613 27.5483C13.6452 28.3548 11.8065 28.9677 10.9355 29.258C9.3871 29.8064 7.67742 30.0322 6.03226 29.8709C5.77419 29.8386 5.70968 29.8386 5.64516 29.8709C5.58065 29.9031 5.64516 29.9677 5.70968 30.0322C6.03226 30.258 6.3871 30.4515 6.74194 30.6451C7.77419 31.1935 8.87097 31.6451 10 31.9677C15.871 33.5806 22.5161 32.387 26.9355 27.9999C30.3871 24.5806 31.6129 19.8386 31.6129 15.0644C31.6129 14.8709 31.8387 14.7741 31.9677 14.6773C32.871 13.9999 33.5806 13.1935 34.2581 12.2902C34.4194 12.0967 34.3871 11.9031 34.3871 11.8386V11.8064C34.3871 11.7419 34.4194 11.7419 34.2903 11.8064Z" fill="none"/>
    <path fill-rule="evenodd" clip-rule="evenodd" d="M14.1613 32.5806C16.5806 32.5806 14.2581 32.5806 14.1613 32.5806C14.4839 32.5806 14.129 32.5806 14.1613 32.5806ZM14.1613 32.5806C14.129 32.5806 13.6774 32.5806 14.1613 32.5806C14.1613 32.5806 14.0645 32.5806 14.1613 32.5806ZM15.129 32.6129C15.129 32.5484 15.6451 32.6129 15.129 32.6129C15.129 32.5806 15.1935 32.6129 15.129 32.6129ZM25.3226 9C25.2903 9.03226 25.258 9.03226 25.1935 9C25.2258 9 25.2903 9 25.3226 9Z" fill="none"/>
</svg>
